<svg width="145" height="42" viewBox="0 0 145 42" fill="none" xmlns="http://www.w3.org/2000/svg">
<path d="M144.194 37.1529C144.194 39.3912 142.348 41.2042 140.064 41.2042H4.93915C2.65706 41.2042 0.804688 39.3912 0.804688 37.1529V4.84559C0.804688 2.60842 2.65706 0.789062 4.93915 0.789062H140.063C142.348 0.789062 144.193 2.60842 144.193 4.84559L144.194 37.1529Z" fill="white"/>
<path d="M139.63 0.841315C142.116 0.841315 144.139 2.81925 144.139 5.25V36.75C144.139 39.1808 142.116 41.1587 139.63 41.1587H5.37037C2.88389 41.1587 0.860602 39.1808 0.860602 36.75V5.25C0.860602 2.81925 2.88389 0.841315 5.37037 0.841315H139.63ZM139.63 2.21967e-06H5.37037C2.41801 2.21967e-06 0 2.36381 0 5.25V36.75C0 39.6362 2.41801 42 5.37037 42H139.63C142.582 42 145 39.6362 145 36.75V5.25C145 2.36381 142.582 2.21967e-06 139.63 2.21967e-06Z" fill="#4C4C4C"/>
<path d="M32.3624 20.7766C32.3313 17.3924 35.1969 15.746 35.328 15.6694C33.705 13.3562 31.1896 13.0402 30.3056 13.015C28.1929 12.7976 26.1436 14.2508 25.0673 14.2508C23.9696 14.2508 22.3123 13.036 20.5261 13.0717C18.2276 13.1063 16.0773 14.4073 14.898 16.4275C12.4641 20.5466 14.2793 26.5999 16.6111 29.9294C17.7776 31.5601 19.1406 33.3808 20.9246 33.3167C22.67 33.2464 23.322 32.2289 25.4282 32.2289C27.5151 32.2289 28.1274 33.3167 29.9468 33.2758C31.82 33.2464 32.9994 31.6378 34.125 29.9924C35.473 28.1234 36.0143 26.2828 36.0358 26.1883C35.9917 26.1736 32.3979 24.8327 32.3624 20.7766Z" fill="#4C4C4C"/>
<path d="M28.9254 10.8247C29.8641 9.67705 30.5064 8.1157 30.3281 6.53125C28.9694 6.59005 27.2703 7.45 26.2918 8.57245C25.4261 9.56155 24.6527 11.1827 24.8525 12.7073C26.3788 12.8186 27.9458 11.9545 28.9254 10.8247Z" fill="#4C4C4C"/>
<path d="M52.6861 10.5087C52.6861 11.7445 52.307 12.6748 51.5498 13.2996C50.8484 13.876 49.8517 14.1648 48.5606 14.1648C47.9205 14.1648 47.3727 14.1375 46.9141 14.0829V7.3303C47.5123 7.2358 48.1568 7.1875 48.8528 7.1875C50.0826 7.1875 51.0095 7.44895 51.6346 7.97185C52.3349 8.563 52.6861 9.40825 52.6861 10.5087ZM51.4993 10.5391C51.4993 9.73795 51.2823 9.1237 50.8484 8.6953C50.4145 8.26795 49.7808 8.05375 48.9462 8.05375C48.5918 8.05375 48.29 8.07685 48.0397 8.12515V13.2586C48.1782 13.2796 48.4317 13.2891 48.8001 13.2891C49.6615 13.2891 50.3264 13.0549 50.7947 12.5866C51.263 12.1183 51.4993 11.4358 51.4993 10.5391Z" fill="white"/>
<path d="M58.9824 11.5894C58.9824 12.3506 58.7601 12.9743 58.3154 13.4636C57.8493 13.9666 57.2317 14.2175 56.4605 14.2175C55.7173 14.2175 55.1254 13.9771 54.684 13.4941C54.2436 13.0121 54.0234 12.4042 54.0234 11.6713C54.0234 10.9048 54.2501 10.2758 54.7055 9.78759C55.1609 9.29934 55.7731 9.05469 56.5443 9.05469C57.2876 9.05469 57.8847 9.29514 58.3369 9.77709C58.7666 10.2454 58.9824 10.8502 58.9824 11.5894ZM57.8149 11.6251C57.8149 11.1683 57.714 10.7767 57.5131 10.4501C57.2768 10.0553 56.9406 9.85794 56.5035 9.85794C56.0513 9.85794 55.7076 10.0553 55.4713 10.4501C55.2694 10.7767 55.1695 11.1746 55.1695 11.645C55.1695 12.1018 55.2704 12.4934 55.4713 12.82C55.7151 13.2148 56.0545 13.4122 56.4927 13.4122C56.9224 13.4122 57.2596 13.2116 57.5024 12.8095C57.7107 12.4766 57.8149 12.0818 57.8149 11.6251Z" fill="white"/>
<path d="M67.414 9.15625L65.8298 14.1059H64.7987L64.1424 11.9566C63.9759 11.42 63.8406 10.8867 63.7353 10.3575H63.7149C63.6172 10.9014 63.4819 11.4337 63.3079 11.9566L62.6108 14.1059H61.5679L60.0781 9.15625H61.2349L61.8074 11.5093C61.9459 12.0658 62.0598 12.5961 62.1511 13.0979H62.1715C62.2553 12.6842 62.3938 12.1572 62.5893 11.5198L63.3079 9.1573H64.2251L64.9136 11.4694C65.0801 12.0333 65.2154 12.5761 65.3196 13.099H65.3508C65.427 12.5898 65.5419 12.0469 65.6945 11.4694L66.3088 9.1573H67.414V9.15625Z" fill="white"/>
<path d="M73.2506 14.1005H72.1249V11.2655C72.1249 10.3919 71.7855 9.95513 71.1046 9.95513C70.7705 9.95513 70.5009 10.0748 70.2915 10.3153C70.0842 10.5557 69.9789 10.8392 69.9789 11.1637V14.0995H68.8533V10.5652C68.8533 10.1305 68.8394 9.65903 68.8125 9.14873H69.8017L69.8544 9.92258H69.8855C70.0165 9.68213 70.212 9.48368 70.4687 9.32513C70.7738 9.14033 71.1153 9.04688 71.4891 9.04688C71.9617 9.04688 72.3548 9.19598 72.6673 9.49523C73.0562 9.86168 73.2506 10.4087 73.2506 11.1353V14.1005Z" fill="white"/>
<path d="M76.3589 14.1037H75.2344V6.88281H76.3589V14.1037Z" fill="white"/>
<path d="M82.9824 11.5894C82.9824 12.3506 82.7601 12.9743 82.3154 13.4636C81.8493 13.9666 81.2306 14.2175 80.4605 14.2175C79.7162 14.2175 79.1244 13.9771 78.684 13.4941C78.2436 13.0121 78.0234 12.4042 78.0234 11.6713C78.0234 10.9048 78.2501 10.2758 78.7055 9.78759C79.1609 9.29934 79.7731 9.05469 80.5432 9.05469C81.2875 9.05469 81.8837 9.29514 82.3369 9.77709C82.7665 10.2454 82.9824 10.8502 82.9824 11.5894ZM81.8138 11.6251C81.8138 11.1683 81.7129 10.7767 81.512 10.4501C81.2768 10.0553 80.9395 9.85794 80.5035 9.85794C80.0502 9.85794 79.7065 10.0553 79.4713 10.4501C79.2694 10.7767 79.1695 11.1746 79.1695 11.645C79.1695 12.1018 79.2704 12.4934 79.4713 12.82C79.7151 13.2148 80.0545 13.4122 80.4927 13.4122C80.9224 13.4122 81.2585 13.2116 81.5013 12.8095C81.7107 12.4766 81.8138 12.0818 81.8138 11.6251Z" fill="white"/>
<path d="M88.4301 14.1052H87.4194L87.3356 13.535H87.3045C86.9586 13.9897 86.4656 14.2175 85.8255 14.2175C85.3475 14.2175 84.9608 14.0674 84.6698 13.7692C84.4056 13.4983 84.2734 13.1612 84.2734 12.7612C84.2734 12.1564 84.5312 11.6954 85.05 11.3762C85.5677 11.057 86.2959 10.9006 87.2336 10.9079V10.8155C87.2336 10.1635 86.8834 9.83799 86.1821 9.83799C85.6826 9.83799 85.2423 9.96084 84.862 10.2044L84.6333 9.48204C85.1037 9.19749 85.6848 9.05469 86.37 9.05469C87.6933 9.05469 88.3571 9.73719 88.3571 11.1022V12.925C88.3571 13.4195 88.3818 13.8133 88.4301 14.1052ZM87.2615 12.4042V11.6408C86.0199 11.6198 85.3991 11.9527 85.3991 12.6383C85.3991 12.8966 85.47 13.0898 85.615 13.219C85.76 13.3481 85.9447 13.4122 86.1649 13.4122C86.4119 13.4122 86.6428 13.3355 86.8534 13.1833C87.065 13.03 87.1949 12.8357 87.2432 12.5974C87.2551 12.5438 87.2615 12.4787 87.2615 12.4042Z" fill="white"/>
<path d="M94.8255 14.1037H93.8266L93.774 13.3088H93.7428C93.4238 13.9136 92.8804 14.216 92.1167 14.216C91.5066 14.216 90.9986 13.9819 90.5958 13.5136C90.193 13.0453 89.9922 12.4373 89.9922 11.6908C89.9922 10.8896 90.2102 10.2407 90.6484 9.74511C91.0727 9.28311 91.5925 9.05211 92.2112 9.05211C92.8911 9.05211 93.3669 9.27576 93.6376 9.72411H93.6591V6.88281H94.7858V12.7702C94.7858 13.2521 94.7987 13.6963 94.8255 14.1037ZM93.6591 12.0163V11.191C93.6591 11.0482 93.6483 10.9327 93.6279 10.8445C93.5645 10.5799 93.4281 10.3573 93.2208 10.1777C93.0114 9.99816 92.759 9.90786 92.4679 9.90786C92.048 9.90786 91.7193 10.0706 91.4776 10.3972C91.2381 10.7237 91.1167 11.1406 91.1167 11.6498C91.1167 12.1391 91.2317 12.536 91.4626 12.8416C91.7064 13.1671 92.0351 13.3298 92.4464 13.3298C92.8159 13.3298 93.1113 13.1944 93.3358 12.9224C93.5527 12.6715 93.6591 12.3691 93.6591 12.0163Z" fill="white"/>
<path d="M104.451 11.5894C104.451 12.3506 104.229 12.9743 103.784 13.4636C103.318 13.9666 102.702 14.2175 101.929 14.2175C101.187 14.2175 100.595 13.9771 100.153 13.4941C99.7124 13.0121 99.4922 12.4042 99.4922 11.6713C99.4922 10.9048 99.7188 10.2758 100.174 9.78759C100.63 9.29934 101.242 9.05469 102.014 9.05469C102.756 9.05469 103.355 9.29514 103.806 9.77709C104.235 10.2454 104.451 10.8502 104.451 11.5894ZM103.285 11.6251C103.285 11.1683 103.184 10.7767 102.983 10.4501C102.746 10.0553 102.41 9.85794 101.972 9.85794C101.521 9.85794 101.177 10.0553 100.94 10.4501C100.738 10.7767 100.638 11.1746 100.638 11.645C100.638 12.1018 100.739 12.4934 100.94 12.82C101.184 13.2148 101.523 13.4122 101.961 13.4122C102.391 13.4122 102.729 13.2116 102.972 12.8095C103.179 12.4766 103.285 12.0818 103.285 11.6251Z" fill="white"/>
<path d="M110.507 14.1005H109.383V11.2655C109.383 10.3919 109.043 9.95513 108.361 9.95513C108.027 9.95513 107.758 10.0748 107.549 10.3153C107.341 10.5557 107.237 10.8392 107.237 11.1637V14.0995H106.11V10.5652C106.11 10.1305 106.097 9.65903 106.07 9.14873H107.058L107.111 9.92258H107.142C107.274 9.68213 107.47 9.48368 107.725 9.32513C108.032 9.14033 108.372 9.04688 108.747 9.04688C109.218 9.04688 109.612 9.19598 109.924 9.49523C110.314 9.86168 110.507 10.4087 110.507 11.1353V14.1005Z" fill="white"/>
<path d="M118.084 9.97882H116.844V12.3833C116.844 12.9944 117.064 13.3 117.5 13.3C117.702 13.3 117.87 13.2832 118.002 13.2485L118.031 14.0833C117.809 14.1652 117.517 14.2061 117.157 14.2061C116.712 14.2061 116.366 14.0738 116.116 13.8092C115.865 13.5446 115.74 13.0994 115.74 12.4747V9.97882H115V9.15457H115.74V8.24737L116.843 7.92188V9.15353H118.083V9.97882H118.084Z" fill="white"/>
<path d="M124.038 14.1037H122.911V11.2897C122.911 10.4024 122.572 9.95826 121.892 9.95826C121.37 9.95826 121.013 10.2155 120.818 10.73C120.785 10.8382 120.765 10.9705 120.765 11.1259V14.1026H119.641V6.88281H120.765V9.86586H120.787C121.141 9.32301 121.649 9.05211 122.308 9.05211C122.774 9.05211 123.159 9.20121 123.465 9.50046C123.847 9.87321 124.038 10.4276 124.038 11.1605V14.1037Z" fill="white"/>
<path d="M130.189 11.3978C130.189 11.5952 130.174 11.7611 130.147 11.8966H126.771C126.786 12.3859 126.947 12.7586 127.26 13.0169C127.546 13.2479 127.914 13.3634 128.365 13.3634C128.865 13.3634 129.32 13.2857 129.73 13.1293L129.906 13.8937C129.426 14.0974 128.861 14.1992 128.207 14.1992C127.423 14.1992 126.806 13.9735 126.359 13.522C125.91 13.0705 125.688 12.4646 125.688 11.7044C125.688 10.9579 125.895 10.3363 126.313 9.84067C126.749 9.31147 127.338 9.04688 128.083 9.04688C128.811 9.04688 129.364 9.31147 129.738 9.84067C130.04 10.2607 130.189 10.7804 130.189 11.3978ZM129.115 11.1133C129.123 10.7867 129.049 10.5053 128.897 10.268C128.701 9.96247 128.404 9.80917 128.001 9.80917C127.634 9.80917 127.334 9.95827 127.105 10.2575C126.918 10.4959 126.808 10.7804 126.771 11.1133H129.115Z" fill="white"/>
<path d="M57.6219 33.075H55.1827L53.8465 28.9705H49.2022L47.9295 33.075H45.5547L50.156 19.1016H52.998L57.6219 33.075ZM53.4438 27.2485L52.2354 23.5998C52.1076 23.227 51.8681 22.3492 51.5147 20.9674H51.4718C51.3311 21.5617 51.1044 22.4395 50.7929 23.5998L49.6061 27.2485H53.4438Z" fill="#4C4C4C"/>
<path d="M69.4568 27.9177C69.4568 29.6313 68.9831 30.9858 68.0358 31.9802C67.1872 32.8653 66.1336 33.3074 64.8758 33.3074C63.5182 33.3074 62.543 32.8307 61.949 31.8773H61.906V37.185H59.6161V26.3207C59.6161 25.2434 59.5871 24.1377 59.5312 23.0037H61.5451L61.673 24.6008H61.7159C62.4796 23.3975 63.6385 22.7969 65.1938 22.7969C66.4096 22.7969 67.4246 23.2662 68.2366 24.206C69.0508 25.1468 69.4568 26.3837 69.4568 27.9177ZM67.1239 27.9996C67.1239 27.0189 66.8983 26.2104 66.4451 25.5741C65.9499 24.9105 65.2851 24.5787 64.4516 24.5787C63.8866 24.5787 63.3732 24.7635 62.9146 25.1279C62.4549 25.4954 62.1541 25.9752 62.0134 26.5695C61.9425 26.8467 61.9071 27.0735 61.9071 27.252V28.932C61.9071 29.6649 62.137 30.2834 62.5967 30.7884C63.0564 31.2935 63.6535 31.5455 64.3882 31.5455C65.2507 31.5455 65.922 31.22 66.4021 30.5711C66.8833 29.9211 67.1239 29.0643 67.1239 27.9996Z" fill="#4C4C4C"/>
<path d="M81.3073 27.9177C81.3073 29.6313 80.8336 30.9858 79.8852 31.9802C79.0377 32.8653 77.9841 33.3074 76.7263 33.3074C75.3687 33.3074 74.3934 32.8307 73.8006 31.8773H73.7576V37.185H71.4677V26.3207C71.4677 25.2434 71.4387 24.1377 71.3828 23.0037H73.3967L73.5245 24.6008H73.5675C74.3301 23.3975 75.489 22.7969 77.0453 22.7969C78.2601 22.7969 79.2751 23.2662 80.0893 24.206C80.9002 25.1468 81.3073 26.3837 81.3073 27.9177ZM78.9744 27.9996C78.9744 27.0189 78.7477 26.2104 78.2945 25.5741C77.7993 24.9105 77.1366 24.5787 76.3021 24.5787C75.736 24.5787 75.2237 24.7635 74.764 25.1279C74.3043 25.4954 74.0046 25.9752 73.8639 26.5695C73.7941 26.8467 73.7576 27.0735 73.7576 27.252V28.932C73.7576 29.6649 73.9874 30.2834 74.445 30.7884C74.9047 31.2924 75.5019 31.5455 76.2387 31.5455C77.1012 31.5455 77.7725 31.22 78.2526 30.5711C78.7338 29.9211 78.9744 29.0643 78.9744 27.9996Z" fill="#4C4C4C"/>
<path d="M94.5629 29.158C94.5629 30.3466 94.1408 31.3136 93.2933 32.0602C92.3621 32.876 91.0657 33.2834 89.3998 33.2834C87.8617 33.2834 86.6287 32.9936 85.6953 32.413L86.2259 30.5471C87.2312 31.1414 88.3343 31.4396 89.5362 31.4396C90.3987 31.4396 91.07 31.2485 91.5522 30.8684C92.0324 30.4883 92.2719 29.978 92.2719 29.3417C92.2719 28.7747 92.0742 28.297 91.6779 27.9095C91.2837 27.5221 90.6253 27.1619 89.7059 26.8291C87.2033 25.9166 85.9531 24.58 85.9531 22.8223C85.9531 21.6736 86.3913 20.7317 87.2688 19.9988C88.1431 19.2649 89.3096 18.8984 90.7682 18.8984C92.0689 18.8984 93.1494 19.12 94.0119 19.562L93.4394 21.3869C92.6338 20.9585 91.723 20.7443 90.7037 20.7443C89.8982 20.7443 89.2688 20.9386 88.8177 21.325C88.4364 21.6704 88.2452 22.0915 88.2452 22.5902C88.2452 23.1425 88.4632 23.5993 88.9014 23.9584C89.2827 24.2902 89.9755 24.6493 90.9808 25.0367C92.2107 25.5208 93.1139 26.0867 93.695 26.7356C94.2739 27.3824 94.5629 28.192 94.5629 29.158Z" fill="#4C4C4C"/>
<path d="M102.136 24.6827H99.6122V29.5747C99.6122 30.8189 100.057 31.4405 100.948 31.4405C101.358 31.4405 101.697 31.4059 101.965 31.3366L102.029 33.0365C101.578 33.2014 100.984 33.2843 100.248 33.2843C99.3437 33.2843 98.6369 33.0145 98.1267 32.4758C97.6187 31.9361 97.3631 31.031 97.3631 29.7595V24.6806H95.8594V23.0006H97.3631V21.1558L99.6122 20.4922V23.0006H102.136V24.6827Z" fill="#4C4C4C"/>
<path d="M113.525 27.9576C113.525 29.5064 113.072 30.7779 112.167 31.7723C111.219 32.796 109.96 33.3063 108.391 33.3063C106.879 33.3063 105.674 32.816 104.777 31.8353C103.879 30.8546 103.43 29.6166 103.43 28.1246C103.43 26.5632 103.892 25.2843 104.818 24.29C105.743 23.2946 106.991 22.7969 108.561 22.7969C110.073 22.7969 111.29 23.2872 112.208 24.269C113.087 25.2213 113.525 26.4509 113.525 27.9576ZM111.149 28.0301C111.149 27.1008 110.946 26.3039 110.535 25.6392C110.055 24.8349 109.368 24.4338 108.479 24.4338C107.558 24.4338 106.859 24.836 106.379 25.6392C105.968 26.3049 105.765 27.1145 105.765 28.0721C105.765 29.0013 105.968 29.7983 106.379 30.4619C106.874 31.2662 107.566 31.6673 108.458 31.6673C109.333 31.6673 110.019 31.2578 110.514 30.4409C110.936 29.7636 111.149 28.9583 111.149 28.0301Z" fill="#4C4C4C"/>
<path d="M120.967 24.9725C120.741 24.9315 120.499 24.9105 120.246 24.9105C119.44 24.9105 118.817 25.2077 118.379 25.803C117.998 26.328 117.806 26.9916 117.806 27.7928V33.0795H115.518L115.539 26.1768C115.539 25.0155 115.51 23.9582 115.453 23.0048H117.448L117.531 24.9326H117.595C117.837 24.27 118.218 23.7366 118.74 23.3366C119.25 22.9764 119.801 22.7969 120.395 22.7969C120.607 22.7969 120.798 22.8116 120.967 22.8378V24.9725Z" fill="#4C4C4C"/>
<path d="M131.207 27.5604C131.207 27.9615 131.18 28.2996 131.123 28.5757H124.253C124.28 29.5711 124.612 30.3324 125.25 30.8574C125.829 31.3267 126.577 31.5619 127.497 31.5619C128.514 31.5619 129.442 31.4034 130.276 31.0852L130.635 32.6392C129.66 33.055 128.508 33.2619 127.18 33.2619C125.582 33.2619 124.327 32.802 123.414 31.8832C122.503 30.9645 122.047 29.7307 122.047 28.183C122.047 26.6637 122.471 25.3984 123.321 24.3894C124.21 23.3121 125.412 22.7734 126.924 22.7734C128.41 22.7734 129.534 23.3121 130.298 24.3894C130.903 25.2451 131.207 26.3035 131.207 27.5604ZM129.023 26.9797C129.038 26.3161 128.889 25.7428 128.578 25.2588C128.182 24.6361 127.573 24.3253 126.753 24.3253C126.005 24.3253 125.396 24.6288 124.931 25.2378C124.549 25.7218 124.323 26.3025 124.253 26.9787H129.023V26.9797Z" fill="#4C4C4C"/>
<path d="M52.192 9.44V10.184H50.712V15H49.8V10.184H48.312V9.44H52.192ZM57.1556 12.688C57.1556 12.8533 57.145 13.0027 57.1236 13.136H53.7556C53.7823 13.488 53.913 13.7707 54.1476 13.984C54.3823 14.1973 54.6703 14.304 55.0116 14.304C55.5023 14.304 55.849 14.0987 56.0516 13.688H57.0356C56.9023 14.0933 56.6596 14.4267 56.3076 14.688C55.961 14.944 55.529 15.072 55.0116 15.072C54.5903 15.072 54.2116 14.9787 53.8756 14.792C53.545 14.6 53.2836 14.3333 53.0916 13.992C52.905 13.6453 52.8116 13.2453 52.8116 12.792C52.8116 12.3387 52.9023 11.9413 53.0836 11.6C53.2703 11.2533 53.529 10.9867 53.8596 10.8C54.1956 10.6133 54.5796 10.52 55.0116 10.52C55.4276 10.52 55.7983 10.6107 56.1236 10.792C56.449 10.9733 56.7023 11.2293 56.8836 11.56C57.065 11.8853 57.1556 12.2613 57.1556 12.688ZM56.2036 12.4C56.1983 12.064 56.0783 11.7947 55.8436 11.592C55.609 11.3893 55.3183 11.288 54.9716 11.288C54.657 11.288 54.3876 11.3893 54.1636 11.592C53.9396 11.7893 53.8063 12.0587 53.7636 12.4H56.2036ZM55.8116 9.408L54.0436 10.28V9.608L55.8116 8.632V9.408ZM58.9651 9.08V15H58.0531V9.08H58.9651ZM64.2025 12.688C64.2025 12.8533 64.1918 13.0027 64.1705 13.136H60.8025C60.8292 13.488 60.9598 13.7707 61.1945 13.984C61.4292 14.1973 61.7172 14.304 62.0585 14.304C62.5492 14.304 62.8958 14.0987 63.0985 13.688H64.0825C63.9492 14.0933 63.7065 14.4267 63.3545 14.688C63.0078 14.944 62.5758 15.072 62.0585 15.072C61.6372 15.072 61.2585 14.9787 60.9225 14.792C60.5918 14.6 60.3305 14.3333 60.1385 13.992C59.9518 13.6453 59.8585 13.2453 59.8585 12.792C59.8585 12.3387 59.9492 11.9413 60.1305 11.6C60.3172 11.2533 60.5758 10.9867 60.9065 10.8C61.2425 10.6133 61.6265 10.52 62.0585 10.52C62.4745 10.52 62.8452 10.6107 63.1705 10.792C63.4958 10.9733 63.7492 11.2293 63.9305 11.56C64.1118 11.8853 64.2025 12.2613 64.2025 12.688ZM63.2505 12.4C63.2452 12.064 63.1252 11.7947 62.8905 11.592C62.6558 11.3893 62.3652 11.288 62.0185 11.288C61.7038 11.288 61.4345 11.3893 61.2105 11.592C60.9865 11.7893 60.8532 12.0587 60.8105 12.4H63.2505ZM62.8585 9.408L61.0905 10.28V9.608L62.8585 8.632V9.408ZM64.796 12.792C64.796 12.3387 64.8867 11.9413 65.068 11.6C65.2547 11.2533 65.5107 10.9867 65.836 10.8C66.1613 10.6133 66.5347 10.52 66.956 10.52C67.4893 10.52 67.9293 10.648 68.276 10.904C68.628 11.1547 68.8653 11.5147 68.988 11.984H68.004C67.924 11.7653 67.796 11.5947 67.62 11.472C67.444 11.3493 67.2227 11.288 66.956 11.288C66.5827 11.288 66.284 11.4213 66.06 11.688C65.8413 11.9493 65.732 12.3173 65.732 12.792C65.732 13.2667 65.8413 13.6373 66.06 13.904C66.284 14.1707 66.5827 14.304 66.956 14.304C67.484 14.304 67.8333 14.072 68.004 13.608H68.988C68.86 14.056 68.62 14.4133 68.268 14.68C67.916 14.9413 67.4787 15.072 66.956 15.072C66.5347 15.072 66.1613 14.9787 65.836 14.792C65.5107 14.6 65.2547 14.3333 65.068 13.992C64.8867 13.6453 64.796 13.2453 64.796 12.792ZM72.1769 10.52C72.5129 10.52 72.8115 10.592 73.0729 10.736C73.3395 10.88 73.5475 11.0933 73.6969 11.376C73.8515 11.6587 73.9289 12 73.9289 12.4V15H73.0249V12.536C73.0249 12.1413 72.9262 11.84 72.7289 11.632C72.5315 11.4187 72.2622 11.312 71.9209 11.312C71.5795 11.312 71.3075 11.4187 71.1049 11.632C70.9075 11.84 70.8089 12.1413 70.8089 12.536V15H69.8969V9.08H70.8089V11.104C70.9635 10.9173 71.1582 10.7733 71.3929 10.672C71.6329 10.5707 71.8942 10.52 72.1769 10.52ZM74.7882 12.776C74.7882 12.3333 74.8789 11.9413 75.0602 11.6C75.2469 11.2587 75.4975 10.9947 75.8122 10.808C76.1322 10.616 76.4842 10.52 76.8682 10.52C77.2149 10.52 77.5162 10.5893 77.7722 10.728C78.0335 10.8613 78.2415 11.0293 78.3962 11.232V10.592H79.3162V15H78.3962V14.344C78.2415 14.552 78.0309 14.7253 77.7642 14.864C77.4975 15.0027 77.1935 15.072 76.8522 15.072C76.4735 15.072 76.1269 14.976 75.8122 14.784C75.4975 14.5867 75.2469 14.3147 75.0602 13.968C74.8789 13.616 74.7882 13.2187 74.7882 12.776ZM78.3962 12.792C78.3962 12.488 78.3322 12.224 78.2042 12C78.0815 11.776 77.9189 11.6053 77.7162 11.488C77.5135 11.3707 77.2949 11.312 77.0602 11.312C76.8255 11.312 76.6069 11.3707 76.4042 11.488C76.2015 11.6 76.0362 11.768 75.9082 11.992C75.7855 12.2107 75.7242 12.472 75.7242 12.776C75.7242 13.08 75.7855 13.3467 75.9082 13.576C76.0362 13.8053 76.2015 13.9813 76.4042 14.104C76.6122 14.2213 76.8309 14.28 77.0602 14.28C77.2949 14.28 77.5135 14.2213 77.7162 14.104C77.9189 13.9867 78.0815 13.816 78.2042 13.592C78.3322 13.3627 78.3962 13.096 78.3962 12.792ZM81.4261 11.232C81.5594 11.008 81.7354 10.8347 81.9541 10.712C82.1781 10.584 82.4421 10.52 82.7461 10.52V11.464H82.5141C82.1567 11.464 81.8847 11.5547 81.6981 11.736C81.5167 11.9173 81.4261 12.232 81.4261 12.68V15H80.5141V10.592H81.4261V11.232ZM85.3604 10.52C85.7017 10.52 86.003 10.5893 86.2644 10.728C86.531 10.8613 86.739 11.0293 86.8884 11.232V10.592H87.8084V15.072C87.8084 15.4773 87.723 15.8373 87.5524 16.152C87.3817 16.472 87.1337 16.7227 86.8084 16.904C86.4884 17.0853 86.1044 17.176 85.6564 17.176C85.059 17.176 84.563 17.0347 84.1684 16.752C83.7737 16.4747 83.5497 16.096 83.4964 15.616H84.4004C84.4697 15.8453 84.6164 16.0293 84.8404 16.168C85.0697 16.312 85.3417 16.384 85.6564 16.384C86.0244 16.384 86.3204 16.272 86.5444 16.048C86.7737 15.824 86.8884 15.4987 86.8884 15.072V14.336C86.7337 14.544 86.523 14.72 86.2564 14.864C85.995 15.0027 85.6964 15.072 85.3604 15.072C84.9764 15.072 84.6244 14.976 84.3044 14.784C83.9897 14.5867 83.739 14.3147 83.5524 13.968C83.371 13.616 83.2804 13.2187 83.2804 12.776C83.2804 12.3333 83.371 11.9413 83.5524 11.6C83.739 11.2587 83.9897 10.9947 84.3044 10.808C84.6244 10.616 84.9764 10.52 85.3604 10.52ZM86.8884 12.792C86.8884 12.488 86.8244 12.224 86.6964 12C86.5737 11.776 86.411 11.6053 86.2084 11.488C86.0057 11.3707 85.787 11.312 85.5524 11.312C85.3177 11.312 85.099 11.3707 84.8964 11.488C84.6937 11.6 84.5284 11.768 84.4004 11.992C84.2777 12.2107 84.2164 12.472 84.2164 12.776C84.2164 13.08 84.2777 13.3467 84.4004 13.576C84.5284 13.8053 84.6937 13.9813 84.8964 14.104C85.1044 14.2213 85.323 14.28 85.5524 14.28C85.787 14.28 86.0057 14.2213 86.2084 14.104C86.411 13.9867 86.5737 13.816 86.6964 13.592C86.8244 13.3627 86.8884 13.096 86.8884 12.792ZM93.0463 12.688C93.0463 12.8533 93.0356 13.0027 93.0143 13.136H89.6463C89.6729 13.488 89.8036 13.7707 90.0383 13.984C90.2729 14.1973 90.5609 14.304 90.9023 14.304C91.3929 14.304 91.7396 14.0987 91.9423 13.688H92.9262C92.7929 14.0933 92.5503 14.4267 92.1983 14.688C91.8516 14.944 91.4196 15.072 90.9023 15.072C90.4809 15.072 90.1023 14.9787 89.7663 14.792C89.4356 14.6 89.1743 14.3333 88.9823 13.992C88.7956 13.6453 88.7023 13.2453 88.7023 12.792C88.7023 12.3387 88.7929 11.9413 88.9743 11.6C89.1609 11.2533 89.4196 10.9867 89.7503 10.8C90.0863 10.6133 90.4703 10.52 90.9023 10.52C91.3183 10.52 91.6889 10.6107 92.0143 10.792C92.3396 10.9733 92.5929 11.2293 92.7743 11.56C92.9556 11.8853 93.0463 12.2613 93.0463 12.688ZM92.0943 12.4C92.0889 12.064 91.9689 11.7947 91.7343 11.592C91.4996 11.3893 91.2089 11.288 90.8623 11.288C90.5476 11.288 90.2783 11.3893 90.0543 11.592C89.8303 11.7893 89.6969 12.0587 89.6543 12.4H92.0943ZM94.8558 11.232C94.9891 11.008 95.1651 10.8347 95.3838 10.712C95.6078 10.584 95.8718 10.52 96.1758 10.52V11.464H95.9438C95.5864 11.464 95.3144 11.5547 95.1278 11.736C94.9464 11.9173 94.8558 12.232 94.8558 12.68V15H93.9438V10.592H94.8558V11.232ZM98.7882 12.776C98.7882 12.3333 98.8789 11.9413 99.0602 11.6C99.2469 11.2587 99.4975 10.9947 99.8122 10.808C100.132 10.616 100.487 10.52 100.876 10.52C101.164 10.52 101.447 10.584 101.724 10.712C102.007 10.8347 102.231 11 102.396 11.208V9.08H103.316V15H102.396V14.336C102.247 14.5493 102.039 14.7253 101.772 14.864C101.511 15.0027 101.21 15.072 100.868 15.072C100.484 15.072 100.132 14.976 99.8122 14.784C99.4975 14.5867 99.2469 14.3147 99.0602 13.968C98.8789 13.616 98.7882 13.2187 98.7882 12.776ZM102.396 12.792C102.396 12.488 102.332 12.224 102.204 12C102.082 11.776 101.919 11.6053 101.716 11.488C101.514 11.3707 101.295 11.312 101.06 11.312C100.826 11.312 100.607 11.3707 100.404 11.488C100.202 11.6 100.036 11.768 99.9082 11.992C99.7855 12.2107 99.7242 12.472 99.7242 12.776C99.7242 13.08 99.7855 13.3467 99.9082 13.576C100.036 13.8053 100.202 13.9813 100.404 14.104C100.612 14.2213 100.831 14.28 101.06 14.28C101.295 14.28 101.514 14.2213 101.716 14.104C101.919 13.9867 102.082 13.816 102.204 13.592C102.332 13.3627 102.396 13.096 102.396 12.792ZM104.21 12.776C104.21 12.3333 104.301 11.9413 104.482 11.6C104.669 11.2587 104.919 10.9947 105.234 10.808C105.554 10.616 105.906 10.52 106.29 10.52C106.637 10.52 106.938 10.5893 107.194 10.728C107.455 10.8613 107.663 11.0293 107.818 11.232V10.592H108.738V15H107.818V14.344C107.663 14.552 107.453 14.7253 107.186 14.864C106.919 15.0027 106.615 15.072 106.274 15.072C105.895 15.072 105.549 14.976 105.234 14.784C104.919 14.5867 104.669 14.3147 104.482 13.968C104.301 13.616 104.21 13.2187 104.21 12.776ZM107.818 12.792C107.818 12.488 107.754 12.224 107.626 12C107.503 11.776 107.341 11.6053 107.138 11.488C106.935 11.3707 106.717 11.312 106.482 11.312C106.247 11.312 106.029 11.3707 105.826 11.488C105.623 11.6 105.458 11.768 105.33 11.992C105.207 12.2107 105.146 12.472 105.146 12.776C105.146 13.08 105.207 13.3467 105.33 13.576C105.458 13.8053 105.623 13.9813 105.826 14.104C106.034 14.2213 106.253 14.28 106.482 14.28C106.717 14.28 106.935 14.2213 107.138 14.104C107.341 13.9867 107.503 13.816 107.626 13.592C107.754 13.3627 107.818 13.096 107.818 12.792ZM112.16 10.52C112.507 10.52 112.816 10.592 113.088 10.736C113.365 10.88 113.581 11.0933 113.736 11.376C113.891 11.6587 113.968 12 113.968 12.4V15H113.064V12.536C113.064 12.1413 112.965 11.84 112.768 11.632C112.571 11.4187 112.301 11.312 111.96 11.312C111.619 11.312 111.347 11.4187 111.144 11.632C110.947 11.84 110.848 12.1413 110.848 12.536V15H109.936V10.592H110.848V11.096C110.997 10.9147 111.187 10.7733 111.416 10.672C111.651 10.5707 111.899 10.52 112.16 10.52ZM116.731 15.072C116.385 15.072 116.073 15.0107 115.795 14.888C115.523 14.76 115.307 14.5893 115.147 14.376C114.987 14.1573 114.902 13.9147 114.891 13.648H115.835C115.851 13.8347 115.939 13.992 116.099 14.12C116.265 14.2427 116.47 14.304 116.715 14.304C116.971 14.304 117.169 14.256 117.307 14.16C117.451 14.0587 117.523 13.9307 117.523 13.776C117.523 13.6107 117.443 13.488 117.283 13.408C117.129 13.328 116.881 13.24 116.539 13.144C116.209 13.0533 115.939 12.9653 115.731 12.88C115.523 12.7947 115.342 12.664 115.187 12.488C115.038 12.312 114.963 12.08 114.963 11.792C114.963 11.5573 115.033 11.344 115.171 11.152C115.31 10.9547 115.507 10.8 115.763 10.688C116.025 10.576 116.323 10.52 116.659 10.52C117.161 10.52 117.563 10.648 117.867 10.904C118.177 11.1547 118.342 11.4987 118.363 11.936H117.451C117.435 11.7387 117.355 11.5813 117.211 11.464C117.067 11.3467 116.873 11.288 116.627 11.288C116.387 11.288 116.203 11.3333 116.075 11.424C115.947 11.5147 115.883 11.6347 115.883 11.784C115.883 11.9013 115.926 12 116.011 12.08C116.097 12.16 116.201 12.224 116.323 12.272C116.446 12.3147 116.627 12.3707 116.867 12.44C117.187 12.5253 117.449 12.6133 117.651 12.704C117.859 12.7893 118.038 12.9173 118.187 13.088C118.337 13.2587 118.414 13.4853 118.419 13.768C118.419 14.0187 118.35 14.2427 118.211 14.44C118.073 14.6373 117.875 14.792 117.619 14.904C117.369 15.016 117.073 15.072 116.731 15.072Z" fill="#4C4C4C"/>
</svg>
