<svg width="192" height="62" viewBox="0 0 192 62" fill="none" xmlns="http://www.w3.org/2000/svg">
<g filter="url(#filter0_d_306_25085)">
<path d="M186.979 47.7692C186.979 50.6469 184.637 52.9779 181.739 52.9779H10.2699C7.37404 52.9779 5.02344 50.6469 5.02344 47.7692V6.23116C5.02344 3.3548 7.37404 1.01562 10.2699 1.01562H181.738C184.637 1.01562 186.978 3.3548 186.978 6.23116L186.979 47.7692Z" fill="black"/>
<path d="M181.185 1.08169C184.34 1.08169 186.908 3.62475 186.908 6.75V47.25C186.908 50.3753 184.34 52.9183 181.185 52.9183H10.8148C7.65956 52.9183 5.09207 50.3753 5.09207 47.25V6.75C5.09207 3.62475 7.65956 1.08169 10.8148 1.08169H181.185ZM181.185 2.85387e-06H10.8148C7.06837 2.85387e-06 4 3.03919 4 6.75V47.25C4 50.9608 7.06837 54 10.8148 54H181.185C184.932 54 188 50.9608 188 47.25V6.75C188 3.03919 184.932 2.85387e-06 181.185 2.85387e-06Z" fill="#A6A6A6"/>
<path d="M45.066 26.7061C45.0264 22.355 48.6628 20.2382 48.8291 20.1397C46.7697 17.1656 43.5776 16.7593 42.4559 16.7269C39.7749 16.4474 37.1744 18.3158 35.8087 18.3158C34.4158 18.3158 32.3127 16.7539 30.0461 16.7998C27.1294 16.8443 24.4007 18.517 22.9042 21.1144C19.8157 26.4104 22.1191 34.1932 25.0781 38.474C26.5583 40.5706 28.2879 42.9115 30.5518 42.8291C32.7666 42.7387 33.5939 41.4305 36.2667 41.4305C38.9149 41.4305 39.6918 42.8291 42.0007 42.7765C44.3777 42.7387 45.8742 40.6705 47.3026 38.555C49.0131 36.152 49.7 33.7855 49.7273 33.664C49.6714 33.6451 45.1109 31.9211 45.066 26.7061Z" fill="white"/>
<path d="M40.7045 13.9108C41.8957 12.4352 42.7108 10.4278 42.4845 8.39062C40.7604 8.46622 38.6041 9.57188 37.3625 11.015C36.2639 12.2867 35.2826 14.3711 35.5361 16.3313C37.4729 16.4744 39.4615 15.3634 40.7045 13.9108Z" fill="white"/>
<path d="M70.8558 13.5122C70.8558 15.1012 70.3747 16.2973 69.4138 17.1005C68.5238 17.8417 67.259 18.2129 65.6207 18.2129C64.8083 18.2129 64.1132 18.1778 63.5312 18.1076V9.42579C64.2904 9.30429 65.1082 9.24219 65.9914 9.24219C67.552 9.24219 68.7282 9.57834 69.5215 10.2506C70.4101 11.0107 70.8558 12.0974 70.8558 13.5122ZM69.3497 13.5514C69.3497 12.5213 69.0744 11.7316 68.5238 11.1808C67.9732 10.6313 67.169 10.3559 66.11 10.3559C65.6602 10.3559 65.2772 10.3856 64.9596 10.4477V17.0479C65.1355 17.0749 65.4571 17.087 65.9246 17.087C67.0177 17.087 67.8614 16.786 68.4556 16.1839C69.0499 15.5818 69.3497 14.7043 69.3497 13.5514Z" fill="white"/>
<path d="M78.8397 14.8995C78.8397 15.8783 78.5575 16.6802 77.9933 17.3093C77.4018 17.9559 76.6181 18.2786 75.6394 18.2786C74.6963 18.2786 73.9453 17.9694 73.3851 17.3484C72.8263 16.7288 72.5469 15.9471 72.5469 15.0048C72.5469 14.0193 72.8345 13.2107 73.4124 12.5829C73.9903 11.9552 74.7671 11.6406 75.7458 11.6406C76.6889 11.6406 77.4467 11.9498 78.0205 12.5694C78.5657 13.1715 78.8397 13.9491 78.8397 14.8995ZM77.3581 14.9454C77.3581 14.3582 77.23 13.8546 76.9751 13.4348C76.6753 12.9272 76.2487 12.6734 75.694 12.6734C75.1202 12.6734 74.684 12.9272 74.3842 13.4348C74.1279 13.8546 74.0012 14.3663 74.0012 14.9711C74.0012 15.5583 74.1293 16.0619 74.3842 16.4817C74.6935 16.9893 75.1242 17.2431 75.6803 17.2431C76.2255 17.2431 76.6535 16.9853 76.9615 16.4682C77.2259 16.0403 77.3581 15.5327 77.3581 14.9454Z" fill="white"/>
<path d="M89.5512 11.7734L87.5408 18.1373H86.2324L85.3996 15.3739C85.1884 14.684 85.0166 13.9982 84.8831 13.3178H84.8572C84.7331 14.0171 84.5614 14.7016 84.3406 15.3739L83.456 18.1373H82.1326L80.2422 11.7734H81.7101L82.4366 14.7988C82.6124 15.5143 82.7569 16.196 82.8727 16.8413H82.8986C83.0049 16.3094 83.1807 15.6317 83.4288 14.8123L84.3406 11.7748H85.5046L86.3782 14.7475C86.5895 15.4724 86.7612 16.1704 86.8934 16.8427H86.933C87.0297 16.1879 87.1756 15.49 87.3691 14.7475L88.1487 11.7748H89.5512V11.7734Z" fill="white"/>
<path d="M96.9521 18.1382H95.5237V14.4932C95.5237 13.37 95.093 12.8084 94.2289 12.8084C93.805 12.8084 93.4629 12.9623 93.1971 13.2714C92.9341 13.5806 92.8005 13.9451 92.8005 14.3622V18.1368H91.3721V13.5927C91.3721 13.0338 91.3544 12.4277 91.3203 11.7716H92.5756L92.6424 12.7665H92.6819C92.8482 12.4574 93.0962 12.2022 93.422 11.9984C93.8091 11.7608 94.2425 11.6406 94.7168 11.6406C95.3165 11.6406 95.8154 11.8323 96.212 12.2171C96.7054 12.6882 96.9521 13.3916 96.9521 14.3258V18.1382Z" fill="white"/>
<path d="M100.896 18.1355H99.4688V8.85156H100.896V18.1355Z" fill="white"/>
<path d="M109.301 14.8995C109.301 15.8783 109.018 16.6802 108.454 17.3093C107.863 17.9559 107.078 18.2786 106.1 18.2786C105.156 18.2786 104.405 17.9694 103.846 17.3484C103.287 16.7288 103.008 15.9471 103.008 15.0048C103.008 14.0193 103.295 13.2107 103.873 12.5829C104.451 11.9552 105.228 11.6406 106.205 11.6406C107.15 11.6406 107.906 11.9498 108.481 12.5694C109.027 13.1715 109.301 13.9491 109.301 14.8995ZM107.818 14.9454C107.818 14.3582 107.69 13.8546 107.435 13.4348C107.136 12.9272 106.708 12.6734 106.155 12.6734C105.58 12.6734 105.144 12.9272 104.845 13.4348C104.589 13.8546 104.462 14.3663 104.462 14.9711C104.462 15.5583 104.59 16.0619 104.845 16.4817C105.154 16.9893 105.585 17.2431 106.141 17.2431C106.686 17.2431 107.113 16.9853 107.421 16.4682C107.687 16.0403 107.818 15.5327 107.818 14.9454Z" fill="white"/>
<path d="M116.212 18.1341H114.93L114.823 17.4011H114.784C114.345 17.9856 113.719 18.2786 112.907 18.2786C112.3 18.2786 111.81 18.0855 111.44 17.7021C111.105 17.3538 110.938 16.9205 110.938 16.4061C110.938 15.6285 111.265 15.0359 111.923 14.6255C112.58 14.2151 113.504 14.0139 114.694 14.0234V13.9046C114.694 13.0662 114.249 12.6477 113.359 12.6477C112.726 12.6477 112.167 12.8057 111.684 13.1189L111.394 12.1901C111.991 11.8242 112.728 11.6406 113.598 11.6406C115.277 11.6406 116.119 12.5181 116.119 14.2731V16.6167C116.119 17.2526 116.151 17.7588 116.212 18.1341ZM114.729 15.9471V14.9657C113.154 14.9387 112.366 15.3666 112.366 16.2482C112.366 16.5803 112.456 16.8287 112.64 16.9947C112.824 17.1608 113.058 17.2431 113.338 17.2431C113.651 17.2431 113.944 17.1446 114.211 16.9488C114.48 16.7517 114.645 16.502 114.706 16.1955C114.721 16.1267 114.729 16.043 114.729 15.9471Z" fill="white"/>
<path d="M124.329 18.1355H123.061L122.994 17.1136H122.955C122.55 17.8912 121.86 18.28 120.891 18.28C120.117 18.28 119.472 17.9789 118.961 17.3768C118.45 16.7747 118.195 15.9931 118.195 15.0332C118.195 14.0032 118.472 13.1689 119.028 12.5317C119.566 11.9377 120.226 11.6407 121.011 11.6407C121.874 11.6407 122.478 11.9282 122.821 12.5047H122.848V8.85156H124.278V16.421C124.278 17.0407 124.295 17.6117 124.329 18.1355ZM122.848 15.4517V14.3906C122.848 14.207 122.835 14.0585 122.809 13.9451C122.729 13.6049 122.555 13.3187 122.292 13.0879C122.027 12.857 121.706 12.7409 121.337 12.7409C120.804 12.7409 120.387 12.9502 120.08 13.37C119.776 13.7899 119.622 14.3258 119.622 14.9806C119.622 15.6097 119.768 16.12 120.061 16.5128C120.371 16.9313 120.788 17.1406 121.31 17.1406C121.779 17.1406 122.153 16.9664 122.438 16.6168C122.714 16.2941 122.848 15.9053 122.848 15.4517Z" fill="white"/>
<path d="M136.551 14.8995C136.551 15.8783 136.268 16.6802 135.704 17.3093C135.113 17.9559 134.33 18.2786 133.35 18.2786C132.409 18.2786 131.658 17.9694 131.096 17.3484C130.537 16.7288 130.258 15.9471 130.258 15.0048C130.258 14.0193 130.545 13.2107 131.123 12.5829C131.701 11.9552 132.478 11.6406 133.458 11.6406C134.4 11.6406 135.159 11.9498 135.731 12.5694C136.277 13.1715 136.551 13.9491 136.551 14.8995ZM135.07 14.9454C135.07 14.3582 134.942 13.8546 134.687 13.4348C134.386 12.9272 133.961 12.6734 133.405 12.6734C132.832 12.6734 132.396 12.9272 132.095 13.4348C131.839 13.8546 131.712 14.3663 131.712 14.9711C131.712 15.5583 131.84 16.0619 132.095 16.4817C132.404 16.9893 132.835 17.2431 133.391 17.2431C133.936 17.2431 134.366 16.9853 134.674 16.4682C134.937 16.0403 135.07 15.5327 135.07 14.9454Z" fill="white"/>
<path d="M144.232 18.1382H142.805V14.4932C142.805 13.37 142.374 12.8084 141.509 12.8084C141.085 12.8084 140.743 12.9623 140.478 13.2714C140.214 13.5806 140.082 13.9451 140.082 14.3622V18.1368H138.652V13.5927C138.652 13.0338 138.636 12.4277 138.602 11.7716H139.855L139.922 12.7665H139.962C140.129 12.4574 140.378 12.2022 140.702 11.9984C141.09 11.7608 141.522 11.6406 141.998 11.6406C142.596 11.6406 143.095 11.8323 143.492 12.2171C143.987 12.6882 144.232 13.3916 144.232 14.3258V18.1382Z" fill="white"/>
<path d="M153.843 12.8321H152.27V15.9236C152.27 16.7093 152.549 17.1022 153.103 17.1022C153.359 17.1022 153.572 17.0806 153.739 17.036L153.776 18.1093C153.494 18.2146 153.123 18.2672 152.667 18.2672C152.102 18.2672 151.663 18.0971 151.346 17.7569C151.027 17.4167 150.869 16.8443 150.869 16.0411V12.8321H149.93V11.7724H150.869V10.606L152.269 10.1875V11.7711H153.841V12.8321H153.843Z" fill="white"/>
<path d="M161.4 18.1355H159.971V14.5175C159.971 13.3768 159.54 12.8057 158.677 12.8057C158.015 12.8057 157.562 13.1365 157.314 13.798C157.272 13.937 157.247 14.1071 157.247 14.3069V18.1342H155.82V8.85156H157.247V12.6869H157.275C157.724 11.989 158.369 11.6407 159.205 11.6407C159.796 11.6407 160.285 11.8324 160.674 12.2171C161.158 12.6964 161.4 13.4092 161.4 14.3515V18.1355Z" fill="white"/>
<path d="M169.204 14.6555C169.204 14.9093 169.185 15.1226 169.151 15.2967H164.867C164.887 15.9258 165.091 16.4051 165.488 16.7372C165.85 17.0342 166.318 17.1827 166.89 17.1827C167.524 17.1827 168.102 17.0828 168.622 16.8816L168.846 17.8644C168.237 18.1263 167.52 18.2573 166.69 18.2573C165.695 18.2573 164.911 17.967 164.344 17.3865C163.774 16.806 163.492 16.0271 163.492 15.0497C163.492 14.0898 163.755 13.2906 164.285 12.6534C164.839 11.973 165.587 11.6328 166.532 11.6328C167.456 11.6328 168.158 11.973 168.632 12.6534C169.015 13.1934 169.204 13.8617 169.204 14.6555ZM167.841 14.2896C167.852 13.8698 167.758 13.508 167.565 13.2029C167.317 12.81 166.939 12.6129 166.428 12.6129C165.962 12.6129 165.582 12.8046 165.291 13.1894C165.054 13.4958 164.914 13.8617 164.867 14.2896H167.841Z" fill="white"/>
<path d="M77.1176 42.5361H74.0223L72.3268 37.259H66.4333L64.8182 42.5361H61.8047L67.6436 24.5703H71.25L77.1176 42.5361ZM71.8156 35.045L70.2823 30.3537C70.1201 29.8745 69.8162 28.7459 69.3678 26.9693H69.3132C69.1347 27.7334 68.8471 28.862 68.4519 30.3537L66.9458 35.045H71.8156Z" fill="white"/>
<path d="M92.1342 35.8964C92.1342 38.0996 91.5331 39.8412 90.331 41.1196C89.2543 42.2577 87.9172 42.826 86.3212 42.826C84.5984 42.826 83.3608 42.2131 82.6071 40.9873H82.5526V47.8116H79.6467V33.8431C79.6467 32.458 79.6099 31.0365 79.5391 29.5785H82.0946L82.2568 31.6318H82.3113C83.2804 30.0847 84.751 29.3125 86.7246 29.3125C88.2675 29.3125 89.5555 29.9159 90.5859 31.1242C91.619 32.3338 92.1342 33.9241 92.1342 35.8964ZM89.1738 36.0017C89.1738 34.7408 88.8876 33.7014 88.3125 32.8833C87.6841 32.0301 86.8405 31.6035 85.7828 31.6035C85.0659 31.6035 84.4144 31.841 83.8324 32.3095C83.249 32.782 82.8674 33.399 82.6889 34.1631C82.5989 34.5195 82.5539 34.811 82.5539 35.0406V37.2006C82.5539 38.1429 82.8456 38.938 83.429 39.5873C84.0123 40.2367 84.7701 40.5607 85.7024 40.5607C86.7968 40.5607 87.6487 40.1422 88.2579 39.3079C88.8685 38.4722 89.1738 37.3707 89.1738 36.0017Z" fill="white"/>
<path d="M107.18 35.8964C107.18 38.0996 106.579 39.8412 105.375 41.1196C104.3 42.2577 102.963 42.826 101.367 42.826C99.6439 42.826 98.4063 42.2131 97.654 40.9873H97.5994V47.8116H94.6936V33.8431C94.6936 32.458 94.6568 31.0365 94.5859 29.5785H97.1415L97.3037 31.6318H97.3582C98.3259 30.0847 99.7966 29.3125 101.771 29.3125C103.313 29.3125 104.601 29.9159 105.634 31.1242C106.663 32.3338 107.18 33.9241 107.18 35.8964ZM104.219 36.0017C104.219 34.7408 103.932 33.7014 103.357 32.8833C102.728 32.0301 101.887 31.6035 100.828 31.6035C100.11 31.6035 99.4599 31.841 98.8765 32.3095C98.2932 32.782 97.9129 33.399 97.7344 34.1631C97.6458 34.5195 97.5994 34.811 97.5994 35.0406V37.2006C97.5994 38.1429 97.8911 38.938 98.4717 39.5873C99.0551 40.2354 99.8129 40.5607 100.748 40.5607C101.842 40.5607 102.694 40.1422 103.303 39.3079C103.914 38.4722 104.219 37.3707 104.219 36.0017Z" fill="white"/>
<path d="M123.995 37.4955C123.995 39.0237 123.459 40.2671 122.384 41.2269C121.202 42.2759 119.557 42.7997 117.443 42.7997C115.491 42.7997 113.927 42.4271 112.742 41.6805L113.415 39.2816C114.691 40.0457 116.091 40.4291 117.616 40.4291C118.711 40.4291 119.562 40.1834 120.174 39.6947C120.784 39.206 121.088 38.5499 121.088 37.7318C121.088 37.0028 120.837 36.3885 120.334 35.8904C119.834 35.3922 118.998 34.9292 117.831 34.5012C114.656 33.3281 113.069 31.6095 113.069 29.3496C113.069 27.8727 113.625 26.6618 114.739 25.7195C115.848 24.7758 117.329 24.3047 119.179 24.3047C120.83 24.3047 122.201 24.5895 123.296 25.1579L122.569 27.5042C121.547 26.9534 120.391 26.678 119.098 26.678C118.075 26.678 117.277 26.9277 116.704 27.4245C116.22 27.8687 115.978 28.41 115.978 29.0513C115.978 29.7614 116.255 30.3486 116.811 30.8103C117.294 31.2369 118.174 31.6986 119.449 32.1968C121.01 32.8191 122.156 33.5468 122.894 34.3811C123.628 35.2127 123.995 36.2535 123.995 37.4955Z" fill="white"/>
<path d="M133.606 31.7394H130.403V38.0291C130.403 39.6288 130.967 40.428 132.098 40.428C132.618 40.428 133.048 40.3835 133.389 40.2944L133.469 42.48C132.897 42.692 132.143 42.7986 131.21 42.7986C130.062 42.7986 129.165 42.4517 128.518 41.7591C127.873 41.0652 127.549 39.9015 127.549 38.2667V31.7367H125.641V29.5767H127.549V27.2048L130.403 26.3516V29.5767H133.606V31.7394Z" fill="white"/>
<path d="M148.053 35.9478C148.053 37.939 147.478 39.5738 146.33 40.8523C145.126 42.1685 143.529 42.8246 141.538 42.8246C139.619 42.8246 138.091 42.1942 136.951 40.9333C135.812 39.6724 135.242 38.0807 135.242 36.1624C135.242 34.1549 135.828 32.5107 137.004 31.2322C138.178 29.9524 139.762 29.3125 141.753 29.3125C143.672 29.3125 145.216 29.943 146.382 31.2052C147.497 32.4297 148.053 34.0105 148.053 35.9478ZM145.038 36.0409C145.038 34.8461 144.78 33.8215 144.258 32.967C143.649 31.9329 142.778 31.4171 141.649 31.4171C140.481 31.4171 139.594 31.9342 138.985 32.967C138.463 33.8229 138.205 34.8637 138.205 36.0949C138.205 37.2896 138.463 38.3143 138.985 39.1675C139.613 40.2016 140.491 40.7173 141.624 40.7173C142.733 40.7173 143.604 40.1908 144.232 39.1405C144.768 38.2698 145.038 37.2343 145.038 36.0409Z" fill="white"/>
<path d="M157.497 32.1097C157.21 32.0571 156.903 32.0301 156.582 32.0301C155.559 32.0301 154.769 32.4121 154.213 33.1775C153.729 33.8525 153.486 34.7057 153.486 35.7358V42.533H150.582L150.609 33.6581C150.609 32.1651 150.572 30.8056 150.5 29.5798H153.031L153.137 32.0584H153.218C153.524 31.2066 154.008 30.5207 154.671 30.0064C155.318 29.5433 156.017 29.3125 156.771 29.3125C157.04 29.3125 157.282 29.3314 157.497 29.3651V32.1097Z" fill="white"/>
<path d="M170.498 35.4437C170.498 35.9594 170.464 36.3941 170.392 36.7492H161.675C161.709 38.029 162.13 39.0077 162.939 39.6827C163.674 40.2862 164.624 40.5886 165.791 40.5886C167.081 40.5886 168.259 40.3847 169.318 39.9757L169.773 41.9737C168.536 42.5083 167.075 42.7742 165.389 42.7742C163.361 42.7742 161.769 42.1829 160.61 41.0017C159.454 39.8204 158.875 38.2342 158.875 36.2443C158.875 34.2908 159.413 32.6641 160.491 31.3667C161.62 29.9816 163.145 29.2891 165.064 29.2891C166.949 29.2891 168.376 29.9816 169.345 31.3667C170.113 32.467 170.498 33.8278 170.498 35.4437ZM167.727 34.6972C167.747 33.844 167.557 33.1069 167.163 32.4845C166.66 31.684 165.887 31.2844 164.848 31.2844C163.898 31.2844 163.125 31.6745 162.535 32.4575C162.051 33.0799 161.763 33.8264 161.675 34.6958H167.727V34.6972Z" fill="white"/>
<rect x="62" y="6" width="112" height="15" fill="black"/>
<path d="M67.764 9.355V10.378H65.729V17H64.475V10.378H62.429V9.355H67.764ZM74.589 13.821C74.589 14.0483 74.5743 14.2537 74.545 14.437H69.914C69.9507 14.921 70.1303 15.3097 70.453 15.603C70.7757 15.8963 71.1717 16.043 71.641 16.043C72.3157 16.043 72.7923 15.7607 73.071 15.196H74.424C74.2407 15.7533 73.907 16.2117 73.423 16.571C72.9463 16.923 72.3523 17.099 71.641 17.099C71.0617 17.099 70.541 16.9707 70.079 16.714C69.6243 16.45 69.265 16.0833 69.001 15.614C68.7443 15.1373 68.616 14.5873 68.616 13.964C68.616 13.3407 68.7407 12.7943 68.99 12.325C69.2467 11.8483 69.6023 11.4817 70.057 11.225C70.519 10.9683 71.047 10.84 71.641 10.84C72.213 10.84 72.7227 10.9647 73.17 11.214C73.6173 11.4633 73.9657 11.8153 74.215 12.27C74.4643 12.7173 74.589 13.2343 74.589 13.821ZM73.28 13.425C73.2727 12.963 73.1077 12.5927 72.785 12.314C72.4623 12.0353 72.0627 11.896 71.586 11.896C71.1533 11.896 70.783 12.0353 70.475 12.314C70.167 12.5853 69.9837 12.9557 69.925 13.425H73.28ZM72.741 9.311L70.31 10.51V9.586L72.741 8.244V9.311ZM77.077 8.86V17H75.823V8.86H77.077ZM84.2784 13.821C84.2784 14.0483 84.2638 14.2537 84.2344 14.437H79.6034C79.6401 14.921 79.8198 15.3097 80.1424 15.603C80.4651 15.8963 80.8611 16.043 81.3304 16.043C82.0051 16.043 82.4818 15.7607 82.7604 15.196H84.1134C83.9301 15.7533 83.5964 16.2117 83.1124 16.571C82.6358 16.923 82.0418 17.099 81.3304 17.099C80.7511 17.099 80.2304 16.9707 79.7684 16.714C79.3138 16.45 78.9544 16.0833 78.6904 15.614C78.4338 15.1373 78.3054 14.5873 78.3054 13.964C78.3054 13.3407 78.4301 12.7943 78.6794 12.325C78.9361 11.8483 79.2918 11.4817 79.7464 11.225C80.2084 10.9683 80.7364 10.84 81.3304 10.84C81.9024 10.84 82.4121 10.9647 82.8594 11.214C83.3068 11.4633 83.6551 11.8153 83.9044 12.27C84.1538 12.7173 84.2784 13.2343 84.2784 13.821ZM82.9694 13.425C82.9621 12.963 82.7971 12.5927 82.4744 12.314C82.1518 12.0353 81.7521 11.896 81.2754 11.896C80.8428 11.896 80.4724 12.0353 80.1644 12.314C79.8564 12.5853 79.6731 12.9557 79.6144 13.425H82.9694ZM82.4304 9.311L79.9994 10.51V9.586L82.4304 8.244V9.311ZM85.0945 13.964C85.0945 13.3407 85.2192 12.7943 85.4685 12.325C85.7252 11.8483 86.0772 11.4817 86.5245 11.225C86.9718 10.9683 87.4852 10.84 88.0645 10.84C88.7978 10.84 89.4028 11.016 89.8795 11.368C90.3635 11.7127 90.6898 12.2077 90.8585 12.853H89.5055C89.3955 12.5523 89.2195 12.3177 88.9775 12.149C88.7355 11.9803 88.4312 11.896 88.0645 11.896C87.5512 11.896 87.1405 12.0793 86.8325 12.446C86.5318 12.8053 86.3815 13.3113 86.3815 13.964C86.3815 14.6167 86.5318 15.1263 86.8325 15.493C87.1405 15.8597 87.5512 16.043 88.0645 16.043C88.7905 16.043 89.2708 15.724 89.5055 15.086H90.8585C90.6825 15.702 90.3525 16.1933 89.8685 16.56C89.3845 16.9193 88.7832 17.099 88.0645 17.099C87.4852 17.099 86.9718 16.9707 86.5245 16.714C86.0772 16.45 85.7252 16.0833 85.4685 15.614C85.2192 15.1373 85.0945 14.5873 85.0945 13.964ZM95.2432 10.84C95.7052 10.84 96.1159 10.939 96.4752 11.137C96.8419 11.335 97.1279 11.6283 97.3332 12.017C97.5459 12.4057 97.6522 12.875 97.6522 13.425V17H96.4092V13.612C96.4092 13.0693 96.2735 12.655 96.0022 12.369C95.7309 12.0757 95.3605 11.929 94.8912 11.929C94.4219 11.929 94.0479 12.0757 93.7692 12.369C93.4979 12.655 93.3622 13.0693 93.3622 13.612V17H92.1082V8.86H93.3622V11.643C93.5749 11.3863 93.8425 11.1883 94.1652 11.049C94.4952 10.9097 94.8545 10.84 95.2432 10.84ZM98.8338 13.942C98.8338 13.3333 98.9584 12.7943 99.2078 12.325C99.4644 11.8557 99.8091 11.4927 100.242 11.236C100.682 10.972 101.166 10.84 101.694 10.84C102.17 10.84 102.585 10.9353 102.937 11.126C103.296 11.3093 103.582 11.5403 103.795 11.819V10.939H105.06V17H103.795V16.098C103.582 16.384 103.292 16.6223 102.926 16.813C102.559 17.0037 102.141 17.099 101.672 17.099C101.151 17.099 100.674 16.967 100.242 16.703C99.8091 16.4317 99.4644 16.0577 99.2078 15.581C98.9584 15.097 98.8338 14.5507 98.8338 13.942ZM103.795 13.964C103.795 13.546 103.707 13.183 103.531 12.875C103.362 12.567 103.138 12.3323 102.86 12.171C102.581 12.0097 102.28 11.929 101.958 11.929C101.635 11.929 101.334 12.0097 101.056 12.171C100.777 12.325 100.55 12.556 100.374 12.864C100.205 13.1647 100.121 13.524 100.121 13.942C100.121 14.36 100.205 14.7267 100.374 15.042C100.55 15.3573 100.777 15.5993 101.056 15.768C101.342 15.9293 101.642 16.01 101.958 16.01C102.28 16.01 102.581 15.9293 102.86 15.768C103.138 15.6067 103.362 15.372 103.531 15.064C103.707 14.7487 103.795 14.382 103.795 13.964ZM107.961 11.819C108.144 11.511 108.386 11.2727 108.687 11.104C108.995 10.928 109.358 10.84 109.776 10.84V12.138H109.457C108.966 12.138 108.592 12.2627 108.335 12.512C108.086 12.7613 107.961 13.194 107.961 13.81V17H106.707V10.939H107.961V11.819ZM113.371 10.84C113.84 10.84 114.254 10.9353 114.614 11.126C114.98 11.3093 115.266 11.5403 115.472 11.819V10.939H116.737V17.099C116.737 17.6563 116.619 18.1513 116.385 18.584C116.15 19.024 115.809 19.3687 115.362 19.618C114.922 19.8673 114.394 19.992 113.778 19.992C112.956 19.992 112.274 19.7977 111.732 19.409C111.189 19.0277 110.881 18.507 110.808 17.847H112.051C112.146 18.1623 112.348 18.4153 112.656 18.606C112.971 18.804 113.345 18.903 113.778 18.903C114.284 18.903 114.691 18.749 114.999 18.441C115.314 18.133 115.472 17.6857 115.472 17.099V16.087C115.259 16.373 114.969 16.615 114.603 16.813C114.243 17.0037 113.833 17.099 113.371 17.099C112.843 17.099 112.359 16.967 111.919 16.703C111.486 16.4317 111.141 16.0577 110.885 15.581C110.635 15.097 110.511 14.5507 110.511 13.942C110.511 13.3333 110.635 12.7943 110.885 12.325C111.141 11.8557 111.486 11.4927 111.919 11.236C112.359 10.972 112.843 10.84 113.371 10.84ZM115.472 13.964C115.472 13.546 115.384 13.183 115.208 12.875C115.039 12.567 114.815 12.3323 114.537 12.171C114.258 12.0097 113.957 11.929 113.635 11.929C113.312 11.929 113.011 12.0097 112.733 12.171C112.454 12.325 112.227 12.556 112.051 12.864C111.882 13.1647 111.798 13.524 111.798 13.942C111.798 14.36 111.882 14.7267 112.051 15.042C112.227 15.3573 112.454 15.5993 112.733 15.768C113.019 15.9293 113.319 16.01 113.635 16.01C113.957 16.01 114.258 15.9293 114.537 15.768C114.815 15.6067 115.039 15.372 115.208 15.064C115.384 14.7487 115.472 14.382 115.472 13.964ZM123.939 13.821C123.939 14.0483 123.924 14.2537 123.895 14.437H119.264C119.3 14.921 119.48 15.3097 119.803 15.603C120.125 15.8963 120.521 16.043 120.991 16.043C121.665 16.043 122.142 15.7607 122.421 15.196H123.774C123.59 15.7533 123.257 16.2117 122.773 16.571C122.296 16.923 121.702 17.099 120.991 17.099C120.411 17.099 119.891 16.9707 119.429 16.714C118.974 16.45 118.615 16.0833 118.351 15.614C118.094 15.1373 117.966 14.5873 117.966 13.964C117.966 13.3407 118.09 12.7943 118.34 12.325C118.596 11.8483 118.952 11.4817 119.407 11.225C119.869 10.9683 120.397 10.84 120.991 10.84C121.563 10.84 122.072 10.9647 122.52 11.214C122.967 11.4633 123.315 11.8153 123.565 12.27C123.814 12.7173 123.939 13.2343 123.939 13.821ZM122.63 13.425C122.622 12.963 122.457 12.5927 122.135 12.314C121.812 12.0353 121.412 11.896 120.936 11.896C120.503 11.896 120.133 12.0353 119.825 12.314C119.517 12.5853 119.333 12.9557 119.275 13.425H122.63ZM126.427 11.819C126.61 11.511 126.852 11.2727 127.153 11.104C127.461 10.928 127.824 10.84 128.242 10.84V12.138H127.923C127.431 12.138 127.057 12.2627 126.801 12.512C126.551 12.7613 126.427 13.194 126.427 13.81V17H125.173V10.939H126.427V11.819ZM131.834 13.942C131.834 13.3333 131.958 12.7943 132.208 12.325C132.464 11.8557 132.809 11.4927 133.242 11.236C133.682 10.972 134.169 10.84 134.705 10.84C135.101 10.84 135.489 10.928 135.871 11.104C136.259 11.2727 136.567 11.5 136.795 11.786V8.86H138.06V17H136.795V16.087C136.589 16.3803 136.303 16.6223 135.937 16.813C135.577 17.0037 135.163 17.099 134.694 17.099C134.166 17.099 133.682 16.967 133.242 16.703C132.809 16.4317 132.464 16.0577 132.208 15.581C131.958 15.097 131.834 14.5507 131.834 13.942ZM136.795 13.964C136.795 13.546 136.707 13.183 136.531 12.875C136.362 12.567 136.138 12.3323 135.86 12.171C135.581 12.0097 135.28 11.929 134.958 11.929C134.635 11.929 134.334 12.0097 134.056 12.171C133.777 12.325 133.55 12.556 133.374 12.864C133.205 13.1647 133.121 13.524 133.121 13.942C133.121 14.36 133.205 14.7267 133.374 15.042C133.55 15.3573 133.777 15.5993 134.056 15.768C134.342 15.9293 134.642 16.01 134.958 16.01C135.28 16.01 135.581 15.9293 135.86 15.768C136.138 15.6067 136.362 15.372 136.531 15.064C136.707 14.7487 136.795 14.382 136.795 13.964ZM139.289 13.942C139.289 13.3333 139.414 12.7943 139.663 12.325C139.92 11.8557 140.264 11.4927 140.697 11.236C141.137 10.972 141.621 10.84 142.149 10.84C142.626 10.84 143.04 10.9353 143.392 11.126C143.751 11.3093 144.037 11.5403 144.25 11.819V10.939H145.515V17H144.25V16.098C144.037 16.384 143.748 16.6223 143.381 16.813C143.014 17.0037 142.596 17.099 142.127 17.099C141.606 17.099 141.13 16.967 140.697 16.703C140.264 16.4317 139.92 16.0577 139.663 15.581C139.414 15.097 139.289 14.5507 139.289 13.942ZM144.25 13.964C144.25 13.546 144.162 13.183 143.986 12.875C143.817 12.567 143.594 12.3323 143.315 12.171C143.036 12.0097 142.736 11.929 142.413 11.929C142.09 11.929 141.79 12.0097 141.511 12.171C141.232 12.325 141.005 12.556 140.829 12.864C140.66 13.1647 140.576 13.524 140.576 13.942C140.576 14.36 140.66 14.7267 140.829 15.042C141.005 15.3573 141.232 15.5993 141.511 15.768C141.797 15.9293 142.098 16.01 142.413 16.01C142.736 16.01 143.036 15.9293 143.315 15.768C143.594 15.6067 143.817 15.372 143.986 15.064C144.162 14.7487 144.25 14.382 144.25 13.964ZM150.22 10.84C150.697 10.84 151.122 10.939 151.496 11.137C151.877 11.335 152.174 11.6283 152.387 12.017C152.6 12.4057 152.706 12.875 152.706 13.425V17H151.463V13.612C151.463 13.0693 151.327 12.655 151.056 12.369C150.785 12.0757 150.414 11.929 149.945 11.929C149.476 11.929 149.102 12.0757 148.823 12.369C148.552 12.655 148.416 13.0693 148.416 13.612V17H147.162V10.939H148.416V11.632C148.621 11.3827 148.882 11.1883 149.197 11.049C149.52 10.9097 149.861 10.84 150.22 10.84ZM156.505 17.099C156.029 17.099 155.6 17.0147 155.218 16.846C154.844 16.67 154.547 16.4353 154.327 16.142C154.107 15.8413 153.99 15.5077 153.975 15.141H155.273C155.295 15.3977 155.416 15.614 155.636 15.79C155.864 15.9587 156.146 16.043 156.483 16.043C156.835 16.043 157.107 15.977 157.297 15.845C157.495 15.7057 157.594 15.5297 157.594 15.317C157.594 15.0897 157.484 14.921 157.264 14.811C157.052 14.701 156.711 14.58 156.241 14.448C155.787 14.3233 155.416 14.2023 155.13 14.085C154.844 13.9677 154.595 13.788 154.382 13.546C154.177 13.304 154.074 12.985 154.074 12.589C154.074 12.2663 154.17 11.973 154.36 11.709C154.551 11.4377 154.822 11.225 155.174 11.071C155.534 10.917 155.944 10.84 156.406 10.84C157.096 10.84 157.649 11.016 158.067 11.368C158.493 11.7127 158.72 12.1857 158.749 12.787H157.495C157.473 12.5157 157.363 12.2993 157.165 12.138C156.967 11.9767 156.7 11.896 156.362 11.896C156.032 11.896 155.779 11.9583 155.603 12.083C155.427 12.2077 155.339 12.3727 155.339 12.578C155.339 12.7393 155.398 12.875 155.515 12.985C155.633 13.095 155.776 13.183 155.944 13.249C156.113 13.3077 156.362 13.3847 156.692 13.48C157.132 13.5973 157.492 13.7183 157.77 13.843C158.056 13.9603 158.302 14.1363 158.507 14.371C158.713 14.6057 158.819 14.9173 158.826 15.306C158.826 15.6507 158.731 15.9587 158.54 16.23C158.35 16.5013 158.078 16.714 157.726 16.868C157.382 17.022 156.975 17.099 156.505 17.099Z" fill="white"/>
</g>
<defs>
<filter id="filter0_d_306_25085" x="0" y="0" width="192" height="62" filterUnits="userSpaceOnUse" color-interpolation-filters="sRGB">
<feFlood flood-opacity="0" result="BackgroundImageFix"/>
<feColorMatrix in="SourceAlpha" type="matrix" values="0 0 0 0 0 0 0 0 0 0 0 0 0 0 0 0 0 0 127 0" result="hardAlpha"/>
<feOffset dy="4"/>
<feGaussianBlur stdDeviation="2"/>
<feComposite in2="hardAlpha" operator="out"/>
<feColorMatrix type="matrix" values="0 0 0 0 1 0 0 0 0 1 0 0 0 0 1 0 0 0 0.08 0"/>
<feBlend mode="normal" in2="BackgroundImageFix" result="effect1_dropShadow_306_25085"/>
<feBlend mode="normal" in="SourceGraphic" in2="effect1_dropShadow_306_25085" result="shape"/>
</filter>
</defs>
</svg>
