<svg width="145" height="42" viewBox="0 0 145 42" fill="none" xmlns="http://www.w3.org/2000/svg">
<path d="M139.63 42H5.37037C2.41801 42 0 39.6362 0 36.75V5.25C0 2.36381 2.41801 2.21967e-06 5.37037 2.21967e-06H139.63C142.582 2.21967e-06 145 2.36381 145 5.25V36.75C145 39.6362 142.582 42 139.63 42Z" fill="white"/>
<path d="M139.63 0.841315C142.116 0.841315 144.139 2.81925 144.139 5.25V36.75C144.139 39.1808 142.116 41.1587 139.63 41.1587H5.37037C2.88389 41.1587 0.860602 39.1808 0.860602 36.75V5.25C0.860602 2.81925 2.88389 0.841315 5.37037 0.841315H139.63ZM139.63 2.21967e-06H5.37037C2.41801 2.21967e-06 0 2.36381 0 5.25V36.75C0 39.6362 2.41801 42 5.37037 42H139.63C142.582 42 145 39.6362 145 36.75V5.25C145 2.36381 142.582 2.21967e-06 139.63 2.21967e-06Z" fill="#4C4C4C"/>
<path d="M10.4044 7.9115C10.0888 8.23437 9.90625 8.73706 9.90625 9.38806V32.6088C9.90625 33.2598 10.0888 33.7625 10.4044 34.0854L10.4822 34.1562L23.7927 21.1494V20.8422L10.4822 7.83537L10.4044 7.9115Z" fill="#4C4C4C"/>
<path d="M29.8381 25.4922L25.4062 21.1544V20.8472L29.8435 16.5094L29.9429 16.5659L35.1978 19.4888C36.6975 20.3183 36.6975 21.6833 35.1978 22.5181L29.9429 25.4357L29.8381 25.4922Z" fill="#4C4C4C"/>
<path d="M29.1359 26.2417L24.5993 21.8068L11.2109 34.8964C11.709 35.4082 12.5213 35.4699 13.445 34.958L29.1359 26.2417Z" fill="#4C4C4C"/>
<path d="M29.1359 15.7604L13.445 7.04407C12.5213 6.53744 11.709 6.59913 11.2109 7.111L24.5993 20.1953L29.1359 15.7604Z" fill="#4C4C4C"/>
<path d="M73.1802 22.84C70.6574 22.84 68.5965 24.7169 68.5965 27.3064C68.5965 29.875 70.6574 31.7716 73.1802 31.7716C75.7082 31.7716 77.7691 29.875 77.7691 27.3064C77.7691 24.7169 75.7082 22.84 73.1802 22.84ZM73.1802 30.0128C71.7959 30.0128 70.6051 28.8959 70.6051 27.3064C70.6051 25.696 71.7959 24.5988 73.1802 24.5988C74.5644 24.5988 75.7606 25.696 75.7606 27.3064C75.7606 28.8959 74.5644 30.0128 73.1802 30.0128ZM63.1792 22.84C60.6511 22.84 58.5956 24.7169 58.5956 27.3064C58.5956 29.875 60.6511 31.7716 63.1792 31.7716C65.7059 31.7716 67.7628 29.875 67.7628 27.3064C67.7628 24.7169 65.7059 22.84 63.1792 22.84ZM63.1792 30.0128C61.7936 30.0128 60.5987 28.8959 60.5987 27.3064C60.5987 25.696 61.7936 24.5988 63.1792 24.5988C64.5634 24.5988 65.7543 25.696 65.7543 27.3064C65.7543 28.8959 64.5634 30.0128 63.1792 30.0128ZM51.2784 24.2089V26.1068H55.9144C55.7788 27.1673 55.4163 27.9469 54.8605 28.4903C54.1838 29.1466 53.1299 29.875 51.2784 29.875C48.4254 29.875 46.1914 27.6241 46.1914 24.835C46.1914 22.0459 48.4254 19.795 51.2784 19.795C52.8211 19.795 53.9435 20.3843 54.7719 21.1482L56.14 19.8108C54.9813 18.7293 53.44 17.8984 51.2784 17.8984C47.3661 17.8984 44.0781 21.0104 44.0781 24.835C44.0781 28.6596 47.3661 31.7716 51.2784 31.7716C53.393 31.7716 54.9813 31.0943 56.2299 29.8238C57.5094 28.573 57.9082 26.8143 57.9082 25.3941C57.9082 24.9531 57.8706 24.5476 57.8034 24.2089H51.2784ZM99.942 25.6803C99.5648 24.6814 98.4007 22.84 96.0297 22.84C93.6802 22.84 91.724 24.6499 91.724 27.3064C91.724 29.8081 93.66 31.7716 96.2553 31.7716C98.3538 31.7716 99.5648 30.5208 100.063 29.7923L98.5055 28.7778C97.9859 29.5206 97.2783 30.0128 96.2553 30.0128C95.2389 30.0128 94.5099 29.5574 94.0427 28.6596L100.153 26.1882L99.942 25.6803ZM93.7124 27.1673C93.6601 25.4453 95.0805 24.5633 96.0982 24.5633C96.8957 24.5633 97.5724 24.9531 97.7979 25.5109L93.7124 27.1673ZM88.7462 31.4999H90.7547V18.3749H88.7462V31.4999ZM85.4568 23.8349H85.3897C84.9386 23.3125 84.078 22.84 82.9878 22.84C80.7 22.84 78.6083 24.8035 78.6083 27.3209C78.6083 29.8238 80.7 31.7716 82.9878 31.7716C84.078 31.7716 84.9386 31.2951 85.3897 30.757H85.4568V31.3975C85.4568 33.1051 84.5237 34.0225 83.0187 34.0225C81.7915 34.0225 81.0303 33.1563 80.7161 32.4278L78.9694 33.1405C79.4729 34.3244 80.8061 35.7812 83.0187 35.7812C85.3736 35.7812 87.3606 34.4268 87.3606 31.1311V23.1117H85.4568V23.8349ZM83.1596 30.0128C81.7754 30.0128 80.6168 28.8801 80.6168 27.3209C80.6168 25.7472 81.7754 24.5988 83.1596 24.5988C84.5237 24.5988 85.5991 25.7472 85.5991 27.3209C85.5991 28.8801 84.5237 30.0128 83.1596 30.0128ZM109.346 18.3749H104.542V31.4999H106.545V26.5268H109.346C111.57 26.5268 113.752 24.9531 113.752 22.4502C113.752 19.9486 111.565 18.3749 109.346 18.3749ZM109.398 24.7011H106.545V20.2006H109.398C110.894 20.2006 111.747 21.4146 111.747 22.4502C111.747 23.4661 110.894 24.7011 109.398 24.7011ZM121.781 22.8151C120.333 22.8151 118.828 23.4398 118.209 24.8245L119.987 25.5529C120.37 24.8245 121.073 24.5883 121.817 24.5883C122.856 24.5883 123.91 25.1986 123.926 26.2761V26.4139C123.564 26.2092 122.788 25.906 121.833 25.906C119.918 25.906 117.968 26.9363 117.968 28.8591C117.968 30.6179 119.536 31.7506 121.299 31.7506C122.647 31.7506 123.39 31.156 123.858 30.4643H123.926V31.4789H125.861V26.4441C125.861 24.1171 124.083 22.8151 121.781 22.8151ZM121.539 30.0076C120.884 30.0076 119.971 29.6899 119.971 28.8959C119.971 27.88 121.109 27.4902 122.095 27.4902C122.977 27.4902 123.39 27.6805 123.926 27.9312C123.769 29.1466 122.699 30.0076 121.539 30.0076ZM132.909 23.1025L130.607 28.7922H130.538L128.158 23.1025H125.998L129.574 31.0536L127.534 35.4781H129.627L135.138 23.1025H132.909ZM114.853 31.4999H116.861V18.3749H114.853V31.4999Z" fill="#4C4C4C"/>
<path d="M47.416 7.44C48.008 7.44 48.5253 7.55467 48.968 7.784C49.416 8.008 49.76 8.33333 50 8.76C50.2453 9.18133 50.368 9.67467 50.368 10.24C50.368 10.8053 50.2453 11.296 50 11.712C49.76 12.128 49.416 12.448 48.968 12.672C48.5253 12.8907 48.008 13 47.416 13H45.6V7.44H47.416ZM47.416 12.256C48.0667 12.256 48.5653 12.08 48.912 11.728C49.2587 11.376 49.432 10.88 49.432 10.24C49.432 9.59467 49.2587 9.09067 48.912 8.728C48.5653 8.36533 48.0667 8.184 47.416 8.184H46.512V12.256H47.416ZM52.1839 7.44V13H51.2719V7.44H52.1839ZM55.2133 13.056C54.8399 13.056 54.5039 12.992 54.2053 12.864C53.9066 12.7307 53.6719 12.544 53.5013 12.304C53.3306 12.064 53.2453 11.784 53.2453 11.464H54.2213C54.2426 11.704 54.3359 11.9013 54.5013 12.056C54.6719 12.2107 54.9093 12.288 55.2133 12.288C55.5279 12.288 55.7733 12.2133 55.9493 12.064C56.1253 11.9093 56.2133 11.712 56.2133 11.472C56.2133 11.2853 56.1573 11.1333 56.0453 11.016C55.9386 10.8987 55.8026 10.808 55.6373 10.744C55.4773 10.68 55.2533 10.6107 54.9653 10.536C54.6026 10.44 54.3066 10.344 54.0773 10.248C53.8533 10.1467 53.6613 9.992 53.5013 9.784C53.3413 9.576 53.2613 9.29867 53.2613 8.952C53.2613 8.632 53.3413 8.352 53.5013 8.112C53.6613 7.872 53.8853 7.688 54.1733 7.56C54.4613 7.432 54.7946 7.368 55.1733 7.368C55.7119 7.368 56.1519 7.504 56.4933 7.776C56.8399 8.04267 57.0319 8.41067 57.0693 8.88H56.0613C56.0453 8.67733 55.9493 8.504 55.7733 8.36C55.5973 8.216 55.3653 8.144 55.0773 8.144C54.8159 8.144 54.6026 8.21067 54.4373 8.344C54.2719 8.47733 54.1893 8.66933 54.1893 8.92C54.1893 9.09067 54.2399 9.232 54.3413 9.344C54.4479 9.45067 54.5813 9.536 54.7413 9.6C54.9013 9.664 55.1199 9.73333 55.3973 9.808C55.7653 9.90933 56.0639 10.0107 56.2933 10.112C56.5279 10.2133 56.7253 10.3707 56.8853 10.584C57.0506 10.792 57.1333 11.072 57.1333 11.424C57.1333 11.7067 57.0559 11.9733 56.9013 12.224C56.7519 12.4747 56.5306 12.6773 56.2373 12.832C55.9493 12.9813 55.6079 13.056 55.2133 13.056ZM62.0974 9.096C62.0974 9.37867 62.0307 9.64533 61.8974 9.896C61.764 10.1467 61.5507 10.352 61.2574 10.512C60.964 10.6667 60.588 10.744 60.1294 10.744H59.1214V13H58.2094V7.44H60.1294C60.556 7.44 60.916 7.51467 61.2094 7.664C61.508 7.808 61.7294 8.00533 61.8734 8.256C62.0227 8.50667 62.0974 8.78667 62.0974 9.096ZM60.1294 10C60.476 10 60.7347 9.92267 60.9054 9.768C61.076 9.608 61.1614 9.384 61.1614 9.096C61.1614 8.488 60.8174 8.184 60.1294 8.184H59.1214V10H60.1294ZM65.5032 13.056C64.9859 13.056 64.5085 12.936 64.0712 12.696C63.6392 12.4507 63.2952 12.112 63.0392 11.68C62.7885 11.2427 62.6632 10.752 62.6632 10.208C62.6632 9.664 62.7885 9.176 63.0392 8.744C63.2952 8.312 63.6392 7.976 64.0712 7.736C64.5085 7.49067 64.9859 7.368 65.5032 7.368C66.0259 7.368 66.5032 7.49067 66.9352 7.736C67.3725 7.976 67.7165 8.312 67.9672 8.744C68.2179 9.176 68.3432 9.664 68.3432 10.208C68.3432 10.752 68.2179 11.2427 67.9672 11.68C67.7165 12.112 67.3725 12.4507 66.9352 12.696C66.5032 12.936 66.0259 13.056 65.5032 13.056ZM65.5032 12.264C65.8712 12.264 66.1992 12.1813 66.4872 12.016C66.7752 11.8453 66.9992 11.6053 67.1592 11.296C67.3245 10.9813 67.4072 10.6187 67.4072 10.208C67.4072 9.79733 67.3245 9.43733 67.1592 9.128C66.9992 8.81867 66.7752 8.58133 66.4872 8.416C66.1992 8.25067 65.8712 8.168 65.5032 8.168C65.1352 8.168 64.8072 8.25067 64.5192 8.416C64.2312 8.58133 64.0045 8.81867 63.8392 9.128C63.6792 9.43733 63.5992 9.79733 63.5992 10.208C63.5992 10.6187 63.6792 10.9813 63.8392 11.296C64.0045 11.6053 64.2312 11.8453 64.5192 12.016C64.8072 12.1813 65.1352 12.264 65.5032 12.264ZM73.8086 13H72.8966L70.1526 8.848V13H69.2406V7.432H70.1526L72.8966 11.576V7.432H73.8086V13ZM75.9183 7.44V13H75.0063V7.44H75.9183ZM80.0916 10.144C80.3903 10.1973 80.6436 10.3547 80.8516 10.616C81.0596 10.8773 81.1636 11.1733 81.1636 11.504C81.1636 11.7867 81.089 12.0427 80.9396 12.272C80.7956 12.496 80.585 12.6747 80.3076 12.808C80.0303 12.936 79.7076 13 79.3396 13H77.1156V7.44H79.2356C79.6143 7.44 79.9396 7.504 80.2116 7.632C80.4836 7.76 80.689 7.93333 80.8276 8.152C80.9663 8.36533 81.0356 8.60533 81.0356 8.872C81.0356 9.192 80.9503 9.45867 80.7796 9.672C80.609 9.88533 80.3796 10.0427 80.0916 10.144ZM78.0276 9.776H79.1556C79.4543 9.776 79.6863 9.70933 79.8516 9.576C80.0223 9.43733 80.1076 9.24 80.1076 8.984C80.1076 8.73333 80.0223 8.53867 79.8516 8.4C79.6863 8.256 79.4543 8.184 79.1556 8.184H78.0276V9.776ZM79.2596 12.256C79.569 12.256 79.8116 12.1813 79.9876 12.032C80.1636 11.8827 80.2516 11.6747 80.2516 11.408C80.2516 11.136 80.1583 10.92 79.9716 10.76C79.785 10.6 79.537 10.52 79.2276 10.52H78.0276V12.256H79.2596ZM83.0667 12.264H84.9467V13H82.1547V7.44H83.0667V12.264ZM86.6214 8.176V9.808H88.5414V10.552H86.6214V12.256H88.7814V13H85.7094V7.432H88.7814V8.176H86.6214ZM93.8148 13.056C93.4415 13.056 93.1055 12.992 92.8068 12.864C92.5081 12.7307 92.2735 12.544 92.1028 12.304C91.9321 12.064 91.8468 11.784 91.8468 11.464H92.8228C92.8441 11.704 92.9375 11.9013 93.1028 12.056C93.2735 12.2107 93.5108 12.288 93.8148 12.288C94.1295 12.288 94.3748 12.2133 94.5508 12.064C94.7268 11.9093 94.8148 11.712 94.8148 11.472C94.8148 11.2853 94.7588 11.1333 94.6468 11.016C94.5401 10.8987 94.4041 10.808 94.2388 10.744C94.0788 10.68 93.8548 10.6107 93.5668 10.536C93.2041 10.44 92.9081 10.344 92.6788 10.248C92.4548 10.1467 92.2628 9.992 92.1028 9.784C91.9428 9.576 91.8628 9.29867 91.8628 8.952C91.8628 8.632 91.9428 8.352 92.1028 8.112C92.2628 7.872 92.4868 7.688 92.7748 7.56C93.0628 7.432 93.3961 7.368 93.7748 7.368C94.3135 7.368 94.7535 7.504 95.0948 7.776C95.4415 8.04267 95.6335 8.41067 95.6708 8.88H94.6628C94.6468 8.67733 94.5508 8.504 94.3748 8.36C94.1988 8.216 93.9668 8.144 93.6788 8.144C93.4175 8.144 93.2041 8.21067 93.0388 8.344C92.8735 8.47733 92.7908 8.66933 92.7908 8.92C92.7908 9.09067 92.8415 9.232 92.9428 9.344C93.0495 9.45067 93.1828 9.536 93.3428 9.6C93.5028 9.664 93.7215 9.73333 93.9988 9.808C94.3668 9.90933 94.6655 10.0107 94.8948 10.112C95.1295 10.2133 95.3268 10.3707 95.4868 10.584C95.6521 10.792 95.7348 11.072 95.7348 11.424C95.7348 11.7067 95.6575 11.9733 95.5028 12.224C95.3535 12.4747 95.1321 12.6773 94.8388 12.832C94.5508 12.9813 94.2095 13.056 93.8148 13.056ZM97.7149 7.44V10.984C97.7149 11.4053 97.8243 11.7227 98.0429 11.936C98.2669 12.1493 98.5763 12.256 98.9709 12.256C99.3709 12.256 99.6803 12.1493 99.8989 11.936C100.123 11.7227 100.235 11.4053 100.235 10.984V7.44H101.147V10.968C101.147 11.4213 101.048 11.8053 100.851 12.12C100.654 12.4347 100.39 12.6693 100.059 12.824C99.7283 12.9787 99.3629 13.056 98.9629 13.056C98.5629 13.056 98.1976 12.9787 97.8669 12.824C97.5416 12.6693 97.2829 12.4347 97.0909 12.12C96.8989 11.8053 96.8029 11.4213 96.8029 10.968V7.44H97.7149ZM105.222 13L103.942 10.776H103.246V13H102.334V7.44H104.254C104.681 7.44 105.041 7.51467 105.334 7.664C105.633 7.81333 105.854 8.01333 105.998 8.264C106.148 8.51467 106.222 8.79467 106.222 9.104C106.222 9.46667 106.116 9.79733 105.902 10.096C105.694 10.3893 105.372 10.5893 104.934 10.696L106.31 13H105.222ZM103.246 10.048H104.254C104.596 10.048 104.852 9.96267 105.022 9.792C105.198 9.62133 105.286 9.392 105.286 9.104C105.286 8.816 105.201 8.592 105.03 8.432C104.86 8.26667 104.601 8.184 104.254 8.184H103.246V10.048Z" fill="#4C4C4C"/>
</svg>
