<svg width="49" height="46" viewBox="0 0 49 46" fill="none" xmlns="http://www.w3.org/2000/svg">
<path d="M14.4553 1.63282C17.9214 1.56392 21.2825 2.82489 23.8483 5.15617L24.4208 5.67591L25.0007 5.16442C27.6006 2.87037 30.9808 1.65908 34.446 1.77976C37.9111 1.90052 41.1983 3.34409 43.6322 5.81336C46.0642 8.27999 47.4605 11.5835 47.535 15.0466C47.6093 18.5033 46.3614 21.8581 44.046 24.4252L24.1412 44.0743L4.52451 24.1424C2.24336 21.5411 1.04232 18.1661 1.16712 14.708C1.29215 11.2436 2.73844 7.9582 5.20947 5.52673C7.68062 3.09529 10.9893 1.70178 14.4553 1.63282Z" fill="#E02121" stroke="white" stroke-width="1.72684"/>
</svg>
