<svg width="61" height="61" viewBox="0 0 61 61" fill="none" xmlns="http://www.w3.org/2000/svg">
<circle cx="30.4766" cy="30.4766" r="30.4766" fill="url(#paint0_linear_2203_41996)"/>
<g clip-path="url(#clip0_2203_41996)">
<path d="M40.2055 15.3299C39.3631 14.537 38.2849 14.1562 37.1983 14.1562C35.975 14.1562 34.7397 14.6385 33.8187 15.5608C33.6005 15.779 33.2461 15.7781 33.0282 15.5596C32.1072 14.6385 30.8719 14.1562 29.6486 14.1562C28.562 14.1562 27.4838 14.537 26.6414 15.3299C24.7884 17.0741 24.7558 19.9919 26.5422 21.7784L32.0092 27.2454C32.7903 28.0264 34.0566 28.0264 34.8377 27.2454L40.3046 21.7784C42.0911 19.9919 42.0585 17.0741 40.2055 15.3299Z" fill="white"/>
<path d="M46.96 32.1635C45.9024 31.4468 44.6562 31.6498 43.5526 32.2868C42.65 32.8079 38.2466 36.5272 36.6732 37.8641C36.3101 38.1727 35.8512 38.3413 35.3748 38.3414L29.876 38.3425C29.5859 38.3425 29.2717 38.0161 29.2717 37.7273C29.2717 37.3876 29.5678 37.1229 29.876 37.1229H33.6919C35.0276 37.1229 36.5227 36.2526 36.5227 34.7055C36.5227 33.0616 35.0276 32.288 33.6919 32.288C31.3748 32.288 30.924 32.2977 30.924 32.2977C29.9957 32.2977 29.0541 32.2421 28.3289 31.8541C27.3619 31.3585 26.2475 31.0781 25.0581 31.0781C23.0613 31.0781 21.2736 31.8747 20.048 33.1305L14.9753 38.125C14.1839 38.9042 14.179 40.179 14.9643 40.9644L19.3771 45.3772C20.1582 46.1582 21.4245 46.1582 22.2056 45.3772L22.623 44.9598C22.9981 44.5847 23.5068 44.374 24.0372 44.374H35.4494C36.6678 44.374 37.8439 43.9267 38.754 43.1181L47.0422 33.8207C47.5486 33.3711 47.5196 32.5443 46.96 32.1635Z" fill="white"/>
</g>
<defs>
<linearGradient id="paint0_linear_2203_41996" x1="30.4766" y1="0" x2="30.4766" y2="60.9531" gradientUnits="userSpaceOnUse">
<stop stop-color="#BE4248"/>
<stop offset="1" stop-color="#F37402"/>
</linearGradient>
<clipPath id="clip0_2203_41996">
<rect x="13.5391" y="13.5391" width="33.8629" height="33.8629" fill="white"/>
</clipPath>
</defs>
</svg>
