<svg width="85" height="85" viewBox="0 0 85 85" fill="none" xmlns="http://www.w3.org/2000/svg">
<circle cx="42.418" cy="42.5508" r="42.418" fill="url(#paint0_linear_306_25389)"/>
<g clip-path="url(#clip0_306_25389)">
<path d="M47.2464 56.7781C49.5947 58.2271 52.6912 61.4745 50.9309 64.4568C50.619 64.9667 50.1835 65.3871 49.6673 65.6775C49.1513 65.9676 48.571 66.1177 47.9817 66.115H36.845C36.2554 66.1178 35.6747 65.9678 35.1585 65.6775C34.6423 65.3872 34.2078 64.9666 33.8958 64.4568C32.139 61.4795 35.2237 58.2257 37.5716 56.7781C38.8648 58.0654 40.6017 58.7859 42.4094 58.7859C44.217 58.7858 45.9532 58.0653 47.2464 56.7781ZM24.9241 54.9753C26.1141 56.1641 27.6847 56.8756 29.3479 56.9792C31.011 57.0828 32.6547 56.5719 33.9778 55.5398C34.4521 55.1668 34.6736 54.6851 35.0764 55.447C34.6555 55.7681 34.258 56.1201 33.887 56.4998C32.322 58.1229 30.8384 60.283 30.8723 62.6462C30.7492 63.2256 31.4292 64.4357 30.7229 64.3132H24.1966C23.6093 64.3148 23.0313 64.1644 22.5169 63.8757C22.0024 63.587 21.5679 63.1695 21.2551 62.6628C19.4932 59.6893 22.5773 56.4319 24.9241 54.9753ZM59.8938 54.9753C61.5846 55.9695 62.9388 57.4646 63.7766 59.2615C64.0199 59.8021 64.1268 60.3966 64.0872 60.99C64.0476 61.5832 63.8628 62.1569 63.5501 62.6589C63.2373 63.161 62.8062 63.5761 62.2962 63.865C61.7861 64.1539 61.2127 64.3077 60.6292 64.3132H54.1028C53.396 64.4312 54.0765 63.2317 53.9534 62.6462C53.9819 60.2889 52.5032 58.123 50.9387 56.4998C50.5094 55.8632 49.1436 55.498 50.22 54.9841C51.51 56.2753 53.2449 57.0004 55.053 57.0046C55.9512 57.0088 56.8414 56.8323 57.6721 56.4841C58.503 56.1358 59.2583 55.6226 59.8938 54.9753ZM37.1741 51.7849C37.4178 44.7094 47.4054 44.709 47.6497 51.7849C47.4174 58.8382 37.4077 58.8411 37.1741 51.7849ZM55.053 44.6443C61.9952 44.8765 61.9709 55.1048 55.053 55.321C48.1365 55.0722 48.1093 44.902 55.053 44.6443ZM29.7727 44.6443C30.6053 44.6443 31.4257 44.8472 32.1663 45.2351C32.9069 45.623 33.5468 46.1847 34.0315 46.8748C34.5162 47.5648 34.8318 48.3633 34.9534 49.2029C35.0749 50.0426 34.9983 50.9004 34.7298 51.7039C34.4612 52.5071 34.0085 53.2337 33.4094 53.823C32.8103 54.4123 32.0817 54.8475 31.2844 55.0925C30.4873 55.3375 29.6443 55.3856 28.8255 55.2322C28.0065 55.0786 27.2349 54.7278 26.5755 54.2097C22.6491 51.243 24.8092 44.59 29.7727 44.6443ZM30.7405 30.7771C30.9802 31.2293 31.2822 31.7334 31.6077 32.2253C29.9802 33.7052 28.6659 35.508 27.7454 37.5232C26.8249 39.5385 26.3175 41.7241 26.2542 43.946C25.6542 44.3036 25.1134 44.7555 24.6516 45.2849C24.5051 42.5526 24.9786 39.8223 26.0344 37.3064C27.0903 34.7906 28.7006 32.5562 30.7405 30.7771ZM54.094 30.7771C58.1344 34.1762 60.6603 40.3 60.1741 45.2253C59.684 44.7445 59.1469 44.316 58.5716 43.946C58.5078 41.7222 57.9992 39.535 57.0774 37.5183C56.1555 35.5016 54.8398 33.697 53.2102 32.2166C53.5299 31.7533 53.8251 31.2727 54.094 30.7771ZM45.6341 19.2917C46.8944 18.8935 48.2423 18.8821 49.5091 19.2585C54.4206 20.9775 55.042 26.6757 51.93 31.156C49.9463 33.9181 47.4122 36.2217 44.4944 37.9167C43.8677 38.3077 43.1471 38.5144 42.4124 38.5144C41.6777 38.5144 40.957 38.3076 40.3303 37.9167C37.4127 36.2218 34.8793 33.9179 32.8958 31.156C31.468 29.3191 30.6875 25.7556 31.0198 24.6052C31.6708 18.8318 38.7504 17.0362 42.4212 21.4978C43.2567 20.4573 44.374 19.69 45.6341 19.2917Z" fill="white"/>
</g>
<defs>
<linearGradient id="paint0_linear_306_25389" x1="42.418" y1="0.132812" x2="42.418" y2="84.9689" gradientUnits="userSpaceOnUse">
<stop stop-color="#BE4248"/>
<stop offset="1" stop-color="#F37402"/>
</linearGradient>
<clipPath id="clip0_306_25389">
<rect width="47.1311" height="47.1311" fill="white" transform="translate(18.8516 18.9844)"/>
</clipPath>
</defs>
</svg>
