<svg width="24" height="25" viewBox="0 0 24 25" fill="none" xmlns="http://www.w3.org/2000/svg">
<path d="M16 6.77975C16 7.38118 15.7625 7.95883 15.3383 8.38611C14.3619 9.37007 13.415 10.3961 12.4021 11.3443C12.17 11.5585 11.8017 11.5507 11.5795 11.3268L8.6615 8.38611C7.7795 7.49725 7.7795 6.06225 8.6615 5.17339C9.55218 4.27579 11.0032 4.27579 11.8938 5.17339L11.9999 5.28027L12.1059 5.17345C12.533 4.74286 13.1146 4.5 13.7221 4.5C14.3297 4.5 14.9113 4.74284 15.3383 5.17339C15.7625 5.60073 16 6.17835 16 6.77975Z" stroke="#4C4C4C" stroke-width="1.5" stroke-linejoin="round"/>
<path d="M18 20.5L21.8243 16.6757C21.9368 16.5632 22 16.4106 22 16.2515V11C22 10.1716 21.3284 9.5 20.5 9.5C19.6716 9.5 19 10.1716 19 11V15.5" stroke="#4C4C4C" stroke-width="1.5" stroke-linecap="round" stroke-linejoin="round"/>
<path d="M18 16.4962L18.8581 15.6381C18.949 15.5472 19 15.424 19 15.2956C19 15.1121 18.8963 14.9444 18.7322 14.8623L18.2893 14.6409C17.5194 14.2559 16.5894 14.4068 15.9807 15.0155L15.0858 15.9104C14.7107 16.2855 14.5 16.7942 14.5 17.3246V20.4962" stroke="#4C4C4C" stroke-width="1.5" stroke-linecap="round" stroke-linejoin="round"/>
<path d="M6 20.5L2.17574 16.6757C2.06321 16.5632 2 16.4106 2 16.2515V11C2 10.1716 2.67157 9.5 3.5 9.5C4.32843 9.5 5 10.1716 5 11V15.5" stroke="#4C4C4C" stroke-width="1.5" stroke-linecap="round" stroke-linejoin="round"/>
<path d="M6 16.4962L5.14187 15.6381C5.05103 15.5472 5 15.424 5 15.2956C5 15.1121 5.10366 14.9444 5.26776 14.8623L5.71067 14.6409C6.48064 14.2559 7.41059 14.4068 8.01931 15.0155L8.91421 15.9104C9.28929 16.2855 9.5 16.7942 9.5 17.3246V20.4962" stroke="#4C4C4C" stroke-width="1.5" stroke-linecap="round" stroke-linejoin="round"/>
</svg>
