<svg width="69" height="58" viewBox="0 0 69 58" fill="none" xmlns="http://www.w3.org/2000/svg">
<rect width="69" height="58" rx="11" fill="white"/>
<rect width="69" height="58" rx="8" fill="white"/>
<path d="M44.4744 35.9489L45.0756 40.8205C45.2298 42.1001 43.8577 42.9943 42.7631 42.3314L37.4289 39.1555C37.0589 38.9397 36.9664 38.4772 37.1669 38.1072C37.9377 36.6889 38.3539 35.0855 38.3539 33.4822C38.3539 27.8397 33.5131 23.2455 27.5623 23.2455C26.3444 23.2455 25.1573 23.4305 24.0473 23.8005C23.4769 23.9855 22.9219 23.4614 23.0606 22.8755C24.4635 17.2639 29.8594 13.0859 36.3035 13.0859C43.8269 13.0859 49.9164 18.7747 49.9164 25.7893C49.9164 29.9518 47.7735 33.6364 44.4744 35.9489Z" fill="#376E50"/>
<path d="M36.0443 33.4789C36.0443 35.3134 35.3659 37.0093 34.2251 38.3505C32.6989 40.2005 30.2784 41.3876 27.5651 41.3876L23.5414 43.7772C22.863 44.1934 21.9997 43.623 22.0922 42.8368L22.4776 39.7997C20.4118 38.3659 19.0859 36.0689 19.0859 33.4789C19.0859 30.7655 20.5351 28.3759 22.7551 26.9576C24.1272 26.0634 25.7768 25.5547 27.5651 25.5547C32.2518 25.5547 36.0443 29.1005 36.0443 33.4789Z" fill="#376E50"/>
</svg>
