<svg width="75" height="39" viewBox="0 0 75 39" fill="none" xmlns="http://www.w3.org/2000/svg">
<path fill-rule="evenodd" clip-rule="evenodd" d="M0.196355 38.7776C0.606062 39.2597 1.95709 38.9254 5.35349 37.5357C13.2904 34.2184 21.2219 29.4117 27.1871 24.2297L29.9269 21.8845L32.2541 23.6598C36.8371 27.0743 43.0269 29.9485 49.6042 31.7332C54.9704 33.2099 61.7307 33.5422 64.9999 32.4977C65.3041 32.4056 64.6085 33.2079 63.49 34.2856C61.456 36.208 60.9501 37.0235 61.0854 38.0595C61.2364 39.313 62.2434 38.798 66.3431 35.4391C68.6184 33.5836 71.1683 31.7397 72.1452 31.2773C73.1235 30.7878 74.0776 30.2429 74.2519 30.0356C74.7704 29.4946 74.7536 28.2753 74.2582 27.8699C74.0241 27.6679 72.2177 27.3552 69.8585 27.1486C65.2545 26.6871 63.6981 26.2795 59.9499 24.564C58.4635 23.8622 57.0483 23.2996 56.8041 23.2866C55.3661 23.2101 57.6814 26.2333 60.066 27.4972C60.9655 27.9783 62.4305 28.5706 63.3459 28.8088C64.2855 29.0483 65.0323 29.3317 65.0265 29.4397C65.0222 29.5207 64.2453 29.8042 63.2813 30.0237C60.5506 30.6637 55.1541 30.2685 50.9174 29.0955C46.5165 27.8868 42.5425 26.3217 39.2373 24.5185C36.4572 23.0169 32.0471 19.9907 32.0686 19.5857C32.0744 19.4777 32.5559 18.6098 33.1245 17.6383C33.6917 16.6938 34.3861 15.404 34.6363 14.7916C36.8814 9.41177 35.4693 4.24359 31.0903 1.59806C29.7182 0.794077 29.0228 0.567561 27.3434 0.369954C24.8544 0.102224 23.5846 0.386697 22.1063 1.58061C20.0309 3.25719 19.4786 6.47981 20.6813 9.95821C21.4846 12.2481 22.9147 14.5203 25.4802 17.4995L27.7612 20.1418L25.7958 21.7972C21.1233 25.6942 13.8874 30.2129 6.2516 34.0065C0.909712 36.6766 0.0941525 37.1747 0.051082 37.9847C0.0338538 38.3087 0.095152 38.691 0.199373 38.7778L0.196355 38.7776ZM23.4834 3.76866C24.772 2.05024 27.4269 1.81237 29.827 3.23959C34.1062 5.71436 34.5344 10.9656 30.9024 16.2747L29.8995 17.7376L29.0143 16.9865C27.6595 15.8586 24.6846 11.8798 23.8526 10.1299C22.6083 7.43441 22.4575 5.15209 23.4832 3.77166L23.4834 3.76866Z" fill="white"/>
</svg>
